<?xml version="1.0" encoding="UTF-8" standalone="no"?>
<svg
   id="svg4469"
   version="1.1"
   viewBox="0 0 210 297"
   height="297mm"
   width="210mm"
   sodipodi:docname="chexxLogo.svg"
   inkscape:version="1.2 (1:1.2+202206011327+fc4e4096c5)"
   xmlns:inkscape="http://www.inkscape.org/namespaces/inkscape"
   xmlns:sodipodi="http://sodipodi.sourceforge.net/DTD/sodipodi-0.dtd"
   xmlns="http://www.w3.org/2000/svg"
   xmlns:svg="http://www.w3.org/2000/svg"
   xmlns:rdf="http://www.w3.org/1999/02/22-rdf-syntax-ns#"
   xmlns:cc="http://creativecommons.org/ns#"
   xmlns:dc="http://purl.org/dc/elements/1.1/">
  <sodipodi:namedview
     id="namedview622"
     pagecolor="#ffffff"
     bordercolor="#666666"
     borderopacity="1.0"
     inkscape:showpageshadow="2"
     inkscape:pageopacity="0.0"
     inkscape:pagecheckerboard="0"
     inkscape:deskcolor="#d1d1d1"
     inkscape:document-units="mm"
     showgrid="false"
     inkscape:zoom="0.51316815"
     inkscape:cx="92.562254"
     inkscape:cy="360.50562"
     inkscape:window-width="1920"
     inkscape:window-height="1028"
     inkscape:window-x="0"
     inkscape:window-y="0"
     inkscape:window-maximized="1"
     inkscape:current-layer="svg4469" />
  <defs
     id="defs4463" />
  <metadata
     id="metadata4466">
    <rdf:RDF>
      <cc:Work
         rdf:about="">
        <dc:format>image/svg+xml</dc:format>
        <dc:type
           rdf:resource="http://purl.org/dc/dcmitype/StillImage" />
      </cc:Work>
    </rdf:RDF>
  </metadata>
  <path
     id="rect4134-7"
     style="opacity:1;fill:#2f2f2f;fill-opacity:1;stroke:#20201e;stroke-width:1;stroke-dasharray:none"
     d="m 51.498707,68.095933 12.813252,0.115115 6.496235,12.287364 -6.496235,12.287377 H 51.319487 L 44.823248,80.498412 Z" />
  <path
     id="rect4134-3"
     style="opacity:1;fill:#ffffff;fill-opacity:1;stroke:#20201e;stroke-width:1;stroke-dasharray:none"
     d="m 51.184533,117.23693 12.813252,0.11512 6.496236,12.28736 -6.496236,12.28737 H 51.005314 l -6.496236,-12.28737 z" />
  <path
     id="rect4134-7-5"
     style="opacity:1;fill:#2f2f2f;fill-opacity:1;stroke:#20201e;stroke-width:1;stroke-dasharray:none"
     d="m 70.790455,104.92811 12.813252,0.11511 6.496235,12.28738 -6.496235,12.28736 H 70.611235 L 64.114999,117.3306 Z" />
  <path
     id="rect4134-5-6"
     style="opacity:1;fill:#b1b1b1;fill-opacity:1;stroke:#20201e;stroke-width:1;stroke-dasharray:none"
     d="m 51.393863,92.574991 12.813256,0.115115 6.496235,12.287374 -6.496235,12.28738 H 51.214644 l -6.496236,-12.28738 z" />
  <path
     id="rect4134-36"
     style="opacity:1;fill:#ffffff;fill-opacity:1;stroke:#20201e;stroke-width:1;stroke-dasharray:none"
     d="m 70.82966,80.355693 12.813255,0.115115 6.496236,12.287378 -6.496236,12.287364 H 70.65044 L 64.154205,92.758186 Z" />
  <path
     id="rect4134-7-06"
     style="opacity:1;fill:#2f2f2f;fill-opacity:1;stroke:#20201e;stroke-width:1;stroke-dasharray:none"
     d="m 90.435581,68.046855 12.813319,0.115116 6.49623,12.287377 -6.49623,12.287374 H 90.256362 L 83.760126,80.449348 Z" />
  <path
     id="rect4134-5-2"
     style="opacity:1;fill:#b1b1b1;fill-opacity:1;stroke:#20201e;stroke-width:1;stroke-dasharray:none"
     d="m 71.038993,55.693753 12.813252,0.115115 6.496236,12.287364 -6.496236,12.287377 H 70.859774 L 64.363538,68.096232 Z" />
  <path
     id="rect4134-7-06-9"
     style="opacity:1;fill:#2f2f2f;fill-opacity:1;stroke:#20201e;stroke-width:1;stroke-dasharray:none"
     d="m 90.018634,141.76948 12.813306,0.11512 6.49623,12.28739 -6.49623,12.28743 H 89.839404 l -6.496236,-12.28743 z" />
  <path
     id="rect4134-5-2-7"
     style="opacity:1;fill:#b1b1b1;fill-opacity:1;stroke:#20201e;stroke-width:1;stroke-dasharray:none"
     d="m 70.622046,129.41639 12.813252,0.11512 6.496229,12.28735 -6.496229,12.28739 H 70.442826 l -6.496235,-12.28737 z" />
  <path
     id="rect4134-27-3"
     style="opacity:1;fill:#ffffff;fill-opacity:1;stroke:#20201e;stroke-width:1;stroke-dasharray:none"
     d="m 109.73586,80.315064 12.81326,0.115115 6.49624,12.287378 -6.49624,12.287353 h -12.99249 l -6.49624,-12.287353 z" />
  <path
     id="rect4134-7-0-0"
     style="opacity:1;fill:#2f2f2f;fill-opacity:1;stroke:#20201e;stroke-width:1;stroke-dasharray:none"
     d="m 129.34179,68.006237 12.81325,0.115115 6.49625,12.287363 -6.49625,12.287378 h -12.99247 l -6.49624,-12.287378 z" />
  <path
     id="rect4134-23-8"
     style="opacity:1;fill:#ffffff;fill-opacity:1;stroke:#20201e;stroke-width:1;stroke-dasharray:none"
     d="m 129.02806,117.09083 12.81326,0.11511 6.49625,12.28743 -6.49625,12.28741 h -12.99248 l -6.49624,-12.28739 z" />
  <path
     id="rect4134-5-5-8"
     style="opacity:1;fill:#b1b1b1;fill-opacity:1;stroke:#20201e;stroke-width:1;stroke-dasharray:none"
     d="m 129.23739,92.428896 12.81326,0.115116 6.49624,12.287348 -6.49624,12.28739 h -12.99248 l -6.49624,-12.28737 z" />
  <path
     id="rect4134-7-9-2-3"
     style="opacity:1;fill:#2f2f2f;fill-opacity:1;stroke:#20201e;stroke-width:1;stroke-dasharray:none"
     d="m 109.77975,104.70727 12.81327,0.11511 6.49624,12.28738 -6.49624,12.28743 h -12.99249 l -6.49623,-12.28743 z" />
  <path
     id="rect4134-3-1-06"
     style="opacity:1;fill:#ffffff;fill-opacity:1;stroke:#20201e;stroke-width:1;stroke-dasharray:none"
     d="m 90.086844,117.27416 12.813356,0.11512 6.49626,12.28738 -6.49626,12.28741 H 89.907624 l -6.496239,-12.28741 z" />
  <path
     id="rect4134-5-6-94-8"
     style="opacity:1;fill:#b1b1b1;fill-opacity:1;stroke:#20201e;stroke-width:1;stroke-dasharray:none"
     d="m 90.296174,92.612223 12.813366,0.115116 6.49625,12.287371 -6.49625,12.28738 H 90.116954 l -6.496236,-12.28738 z" />
  <path
     id="rect4134-23-7"
     style="opacity:1;fill:#ffffff;fill-opacity:1;stroke:#20201e;stroke-width:1;stroke-dasharray:none"
     d="m 90.357188,43.528335 12.813252,0.115116 6.49624,12.287419 -6.49624,12.287377 H 90.177958 L 83.681722,55.93088 Z" />
  <path
     id="rect4134-5-6-9-7"
     style="opacity:1;fill:#b1b1b1;fill-opacity:1;stroke:#20201e;stroke-width:1;stroke-dasharray:none"
     d="m 109.85827,55.698621 12.81326,0.115116 6.49624,12.287377 -6.49624,12.287377 h -12.99247 l -6.49624,-12.287367 z" />
  <path
     id="rect4134-5-2-7-0-9"
     style="opacity:1;fill:#b1b1b1;fill-opacity:1;stroke:#20201e;stroke-width:1;stroke-dasharray:none"
     d="m 109.52447,129.45362 12.81327,0.11512 6.49623,12.28741 -6.49623,12.28739 H 109.34525 L 102.849,141.85617 Z" />
  <g
     id="g19622"
     transform="matrix(2.8685222,0,0,2.8746849,-38.341923,252.17158)">
    <path
       inkscape:connector-curvature="0"
       id="rect4128-3"
       d="m 50.355134,-50.130511 5.310216,-2.911318 1.902963,13.171354 H 50.83777 l -1.045197,-4.932662 z"
       style="fill:#ffffff;stroke:#20201e;stroke-width:0.179502"
       sodipodi:nodetypes="cccccc" />
    <path
       style="fill:#ffffff;stroke:#20201e;stroke-width:0.235247"
       inkscape:connector-curvature="0"
       id="path4244"
       d="m 64.386381,-49.60452 c 0,0 0.564881,-1.350991 0.668213,-1.524873 0.103333,-0.173881 -0.01104,-0.281206 -0.280867,-0.127677 -0.26968,0.153483 -1.534791,0.931408 -1.534791,0.931408 l 1.146392,0.72031 z" />
    <path
       style="fill:#ffffff;stroke:#20201e;stroke-width:0.235247"
       inkscape:connector-curvature="0"
       id="path4246"
       d="m 50.819971,-44.729176 c 0.393676,-0.526724 0.793719,-1.014147 1.195622,-1.46468 l 0.418062,0.0216 -0.01318,-0.461797 c 0.441292,-0.466927 0.88363,-0.890654 1.321809,-1.275718 l 0.368071,0.06677 0.05073,-0.424637 c 0.431413,-0.357419 0.856769,-0.677157 1.271337,-0.963929 l 0.325205,0.09255 0.08106,-0.365874 c 0.447163,-0.291565 0.878588,-0.544154 1.28774,-0.762978 l 0.322928,0.133747 0.102111,-0.352657 c 0.463529,-0.23045 0.892001,-0.41584 1.274577,-0.564392 l 0.310574,0.154718 0.115018,-0.311972 c 0.906805,-0.317921 1.464777,-0.403294 1.464777,-0.403294 l 0.51311,0.671154 c 0,0 0.460079,-0.04048 0.86166,-0.115578 0,0 0.635058,-0.668559 0.946203,-1.058912 0.311386,-0.39021 0.372304,-0.09264 0.361965,0.05817 -0.01017,0.150892 0.06959,1.400911 0.06959,1.400911 0,0 0.402663,0.150594 0.622701,0.370051 0.323174,0.323155 0.298132,0.765703 0.410599,1.577723 0.08162,0.592133 0.06463,1.058522 -0.04934,1.500419 -0.114103,0.442097 -0.24584,0.36381 -0.408745,0.737687 -0.162517,0.374107 -0.526206,3.687976 -0.584047,4.085075 -0.05735,0.397367 -0.31848,1.561678 -1.312495,1.808696 -0.279088,0.06956 -0.462949,0.07827 -0.606912,0.07078 0,0 -0.14166,-0.162239 -0.138526,-0.317317 5.43e-4,-0.02771 0.002,-0.04396 0.0034,-0.05272 0.0025,-0.009 0.0016,-0.01019 0,0 -0.0067,0.02654 -0.04171,0.12041 -0.172583,0.187137 -0.21336,0.108757 -0.346757,0.01194 -0.433025,-0.02178 -0.128789,-0.05029 -0.260855,-0.311681 -0.229881,-0.764246 0.03085,-0.452355 -0.01,-0.633712 -0.02141,-0.915004 -0.0111,-0.281105 -0.471689,-1.162272 -0.384857,-1.954492 0.0201,-0.183806 -0.167968,-0.217519 -0.346793,-0.166716 -0.178756,0.05071 -0.811478,-0.285923 -0.730351,-1.022558 0,0 -1.030901,1.450802 -1.137681,2.815031 -0.176626,2.248447 1.015646,3.544952 0.490525,5.429871 l -7.601749,-2.582123 -1.412191,-2.77458 c 0.333395,-0.561017 0.675948,-1.086336 1.024419,-1.580369 l 0.423512,-0.03043 -0.05958,-0.47113 z"
       sodipodi:nodetypes="ccccccccccccccccccccccccccccccccccccccccccccccc" />
    <path
       style="fill:none;stroke:#20201e;stroke-width:0.180674"
       inkscape:connector-curvature="0"
       id="path4248"
       d="m 60.677439,-50.744799 c 0,0 -6.089128,1.507053 -10.154312,8.347703" />
    <path
       style="fill:none;stroke:#20201e;stroke-width:0.180674"
       inkscape:connector-curvature="0"
       id="path4250"
       d="m 61.405642,-40.874509 c 0.0018,-0.01023 0.0018,-0.01023 0,0 z" />
    <path
       style="fill:none;stroke:#20201e;stroke-width:0.180674"
       inkscape:connector-curvature="0"
       id="path4252"
       d="m 59.907043,-47.64727 c -0.716159,1.038393 -0.794545,2.037761 -0.820071,2.114034 0,0 -0.550046,-1.176495 -0.143886,-2.059816" />
    <path
       style="fill:none;stroke:#20201e;stroke-width:0.180674"
       inkscape:connector-curvature="0"
       id="path4254"
       d="m 59.085674,-45.532395 c 0,0 -0.851092,0.03067 -1.155831,-0.490419" />
    <path
       style="fill:none;stroke:#20201e;stroke-width:0.180674"
       inkscape:connector-curvature="0"
       id="path4256"
       d="m 61.402639,-40.822532 c 0,0 0.0032,-0.939609 0.0753,-1.328184" />
    <path
       style="fill:none;stroke:#20201e;stroke-width:0.180674"
       inkscape:connector-curvature="0"
       id="path4258"
       d="m 62.715144,-48.788318 c 0,0 0.673249,0.405721 0.608377,1.028132 -0.08874,0.849541 -0.491846,0.727546 -0.491846,0.727546 0,0 -0.437782,-0.06385 -0.421195,-0.642361 0.01779,-0.615952 0.40392,-0.779798 0.40392,-0.779798 l -0.0981,-0.33303 z" />
    <path
       style="fill:none;stroke:#20201e;stroke-width:0.180674"
       inkscape:connector-curvature="0"
       id="path4260"
       d="m 63.04516,-41.886383 c -0.190332,-0.230677 -0.361335,-0.292932 -0.52265,-0.271224 0,0 0.368084,-0.369647 0.394474,-0.864015 0.02595,-0.494484 -0.286259,-0.7194 -0.141372,-1.613753" />
    <line
       style="fill:none;stroke:#20201e;stroke-width:0.180674"
       id="line4262"
       y2="-50.48679"
       x2="57.551464"
       y1="-49.891308"
       x1="57.76173" />
    <line
       style="fill:none;stroke:#20201e;stroke-width:0.180674"
       id="line4264"
       y2="-49.663242"
       x2="55.901173"
       y1="-49.154274"
       x1="56.163918" />
    <line
       style="fill:none;stroke:#20201e;stroke-width:0.180674"
       id="line4266"
       y2="-49.071514"
       x2="55.77739"
       y1="-48.522827"
       x1="56.10556" />
    <line
       style="fill:none;stroke:#20201e;stroke-width:0.180674"
       id="line4268"
       y2="-47.76712"
       x2="54.139717"
       y1="-47.234703"
       x1="54.507153" />
    <line
       style="fill:none;stroke:#20201e;stroke-width:0.180674"
       id="line4270"
       y2="-46.095798"
       x2="52.46246"
       y1="-45.579472"
       x1="52.869484" />
    <line
       style="fill:none;stroke:#20201e;stroke-width:0.180674"
       id="line4272"
       y2="-44.191814"
       x2="50.914837"
       y1="-43.77758"
       x1="51.41193" />
    <path
       style="fill:#ffffff;stroke:#20201e;stroke-width:0.231996"
       inkscape:connector-curvature="0"
       id="path4126"
       d="m 58.620454,-35.691079 c 0.162283,0 0.293479,-0.164262 0.293479,-0.367315 v -0.863048 c 0,-0.203046 -0.131196,-0.367196 -0.293479,-0.367196 h -8.835011 c -0.162187,0 -0.293477,0.16415 -0.293477,0.367196 v 0.863048 c 0,0.203045 0.131279,0.367315 0.293477,0.367315 z" />
    <path
       inkscape:connector-curvature="0"
       id="rect4128"
       d="m 49.966553,-38.648656 h 8.472966 v 1.360304 h -8.472966 z"
       style="fill:#ffffff;stroke:#20201e;stroke-width:0.231996" />
    <path
       inkscape:connector-curvature="0"
       id="polygon4130"
       d="M 57.568313,-39.870475 H 50.83777 l -0.871212,1.221816 h 8.472966 z"
       style="fill:#ffffff;stroke:#20201e;stroke-width:0.231996;stroke-linejoin:bevel" />
    <path
       inkscape:connector-curvature="0"
       id="polygon4132"
       d="m 54.994647,-55.204068 -5.86156,3.307918 -1.661902,-0.624405 7.844729,-4.427102 z"
       style="fill:#ffffff;stroke:#20201e;stroke-width:0.231996;stroke-linejoin:round" />
    <path
       style="fill:#ffffff;stroke:#20201e;stroke-width:0.231996;stroke-linecap:square"
       inkscape:connector-curvature="0"
       id="path4136"
       d="m 53.755741,-59.148845 -1.365342,0.770519 0.619945,1.098529 -0.587014,0.749907 -0.88567,0.08119 -0.619945,-1.098528 -1.682997,0.949784 0.619945,1.098528 -0.527302,0.71621 -0.945458,0.114929 -0.619945,-1.098529 -1.365347,0.770522 c -0.134978,0.07617 -0.163656,0.280972 -0.06403,0.457505 l 1.140607,2.021132 7.848148,-4.429031 -1.140608,-2.021132 c -0.09982,-0.176511 -0.289978,-0.257772 -0.42494,-0.181607 z" />
    <path
       style="fill:#ffffff;stroke:#20201e;stroke-width:0.211954;stroke-linejoin:round"
       inkscape:connector-curvature="0"
       id="path4064"
       d="m 55.664744,-53.040427 c -1.114475,-0.131082 -2.152383,0.04563 -3.111218,0.566683 -0.958832,0.521056 -1.702456,1.338205 -2.198994,2.344632 1.114651,0.13098 2.193968,-0.03132 3.152668,-0.552308 0.960261,-0.51934 1.662289,-1.351448 2.158211,-2.357459 z" />
    <path
       style="fill:#ffffff;stroke:#20201e;stroke-width:0.211954;stroke-linejoin:bevel"
       inkscape:connector-curvature="0"
       id="path4070"
       d="m 54.995647,-55.203396 -10e-4,-6.72e-4 c -1.085212,0.0054 -2.293438,0.312914 -3.448099,0.940389 -1.155662,0.628019 -2.071351,1.475253 -2.666301,2.383634 0,0 0.648683,0.232794 0.888409,0.534875 0.23951,0.301864 0.524454,0.766647 0.586478,1.214659 0.496435,-1.006371 1.240167,-1.823579 2.198997,-2.344634 0.940494,-0.51109 2.019489,-0.683706 3.111219,-0.566684 -0.32765,-0.297644 -0.584634,-0.769936 -0.704144,-1.125142 -0.122131,-0.362675 0.03562,-1.03475 0.03562,-1.03475 z" />
    <path
       style="fill:#ffffff;stroke:#20201e;stroke-width:0.211954;stroke-linejoin:bevel"
       inkscape:connector-curvature="0"
       id="path4072"
       d="m 50.355046,-50.128769 c 0.496433,-1.006369 1.240163,-1.823576 2.198994,-2.344632 0.940492,-0.511089 2.019361,-0.683637 3.111218,-0.566683 -0.139748,-0.127271 -0.414732,-0.496797 -0.526993,-0.72523 -1.041796,-0.01531 -2.033161,0.205561 -2.927058,0.691329 -0.904209,0.491373 -1.635205,1.213095 -2.19158,2.109108 0.235279,0.40845 0.307138,0.63874 0.334701,0.833511 z" />
    <polygon
       transform="matrix(0.04087019,-0.02221,0.03178499,0.05848981,38.960287,-51.054793)"
       id="polygon4074"
       points="271.079,63.3117 280.8004,58.4352 271.079,53.5588 261.3261,58.4352 " />
    <polygon
       transform="matrix(0.04087019,-0.02221,0.03178499,0.05848981,38.960287,-51.054793)"
       id="polygon4076"
       points="231.8472,68.0308 240.6878,61.6443 230.3056,58.4038 221.4651,64.7904 " />
    <polygon
       transform="matrix(0.04087019,-0.02221,0.03178499,0.05848981,38.960287,-51.054793)"
       id="polygon4078"
       points="310.2793,68.0308 301.4388,61.6443 311.8208,58.4038 320.6613,64.7904 " />
  </g>
  <g
     id="g19593"
     transform="matrix(1.1135425,0,0,1.0943568,22.817018,-111.211)">
    <path
       style="stroke-width:0.82215"
       d="m 32.83664,190.45067 21.459258,-0.2039 c 0,0 -0.94224,16.76447 1.13674,20.70645 2.07897,3.94198 7.63724,7.43117 7.63724,7.43117 l -39.852907,0.50973 c 0,0 5.98153,-4.52601 8.13098,-8.51898 2.149448,-3.99294 -0.731235,-23.3907 1.488689,-19.92447 z"
       id="rect5475"
       inkscape:connector-curvature="0"
       sodipodi:nodetypes="cczcczc" />
    <path
       style="fill:#ffffff;stroke:#20201e;stroke-width:0.970675"
       inkscape:connector-curvature="0"
       id="path4164"
       d="m 47.956702,170.63312 -2.086021,-0.24532 c -5.717055,0.39545 -14.395809,8.41704 -14.67231,21.99861 -0.109955,5.39635 0.532393,9.81369 2.301795,13.02216 l 19.129072,-0.14525 c 2.79659,-3.75818 5.36839,-8.51495 5.36839,-14.752 0,-8.29789 -5.845337,-19.40624 -10.040926,-19.88394 z"
       sodipodi:nodetypes="cccccscc" />
    <path
       style="fill:#ffffff;stroke:#20201e;stroke-width:0.970675"
       inkscape:connector-curvature="0"
       id="path4166"
       d="m 35.528367,188.7714 c 0.827839,-5.58925 24.424771,2.92197 10.342314,-18.38361 l -5.791214,0.14375 c -4.343261,1.52257 -9.398212,11.27677 -9.398212,19.40387 0,5.99453 0.187256,11.73541 2.818885,15.47371 l 19.129078,-0.14525 c 1.81006,-3.21834 -17.928685,-10.90319 -17.100851,-16.49243 z"
       sodipodi:nodetypes="zccsccz" />
    <path
       style="fill:#ffffff;stroke:#000000;stroke-width:0.745407;stroke-linejoin:bevel"
       inkscape:connector-curvature="0"
       id="path4168"
       d="m 52.567408,213.76657 c -2.403707,-1.17454 -5.808913,-2.01063 -9.226395,-2.01063 -3.419043,0 -6.619663,0.74125 -9.490774,2.08585 2.871018,1.34389 6.018364,2.12554 9.436616,2.12554 3.420606,0 6.413654,-0.85769 9.285533,-2.20119 z" />
    <path
       style="fill:#ffffff;stroke:#20201e;stroke-width:0.970675;stroke-linejoin:bevel"
       inkscape:connector-curvature="0"
       id="path4170"
       d="m 51.56973,206.68468 -0.0018,-0.003 c -2.328934,-1.0663 -5.008207,-1.96024 -8.474569,-1.96024 -3.469515,0 -6.144989,0.8947 -8.474578,1.96283 0,0 -0.521954,3.61138 -0.572397,4.42675 -0.07863,1.25012 -0.19659,2.72929 -0.19659,2.72929 2.871022,-1.34465 6.071595,-2.08588 9.490777,-2.08588 3.351906,0 6.396254,0.71422 9.226395,2.01063 -0.10164,-1.00072 -0.21922,-2.00059 -0.453751,-3.50091 -0.128275,-0.797 -0.548729,-3.59028 -0.548729,-3.59028 z" />
    <path
       style="fill:#ffffff;stroke:#20201e;stroke-width:0.970675;stroke-linejoin:bevel"
       inkscape:connector-curvature="0"
       id="path4172"
       d="m 33.846657,213.84246 c 2.871021,-1.34466 6.071598,-2.08588 9.490777,-2.08588 3.351911,0 6.396279,0.71422 9.226394,2.01063 -0.0727,-0.83722 -0.24671,-1.35907 -0.356323,-2.42756 -2.843882,-1.06114 -5.727115,-1.60255 -8.914252,-1.60255 -3.223228,0 -6.417145,0.62337 -9.28839,1.70746 -0.01455,0.94121 -0.163872,2.3986 -0.163872,2.3986 z" />
    <path
       style="fill:#ffffff;stroke:#20201e;stroke-width:0.970675"
       inkscape:connector-curvature="0"
       id="path4174"
       d="m 34.616303,206.68468 c 2.329294,-1.06737 5.007213,-1.9814 8.47743,-2.0051 2.954556,-0.0213 6.146048,0.93621 8.475295,2.00358 0.127705,-0.13641 0.668777,-0.31135 1.0606,-1.42102 -1.958651,-2.25862 -4.870807,-3.43831 -9.53567,-3.43831 -4.977632,0 -7.635098,1.32201 -9.59341,3.58357 0.384823,1.10819 0.98343,1.13855 1.111702,1.2752 z" />
    <path
       style="fill:none;stroke:#000000;stroke-width:0.745407"
       d="m 43.096578,201.82679 v 2.85404"
       id="line4176" />
    <path
       style="fill:#ffffff;stroke:#20201e;stroke-width:0.699795"
       inkscape:connector-curvature="0"
       id="path4104"
       d="m 59.206338,162.12145 c -1.01545,-0.48527 -2.31993,-0.20479 -2.91304,0.62718 -0.50942,0.71289 -0.32783,1.59713 0.3734,2.14168 -2.90148,2.87765 -1.20433,1.51786 -2.48238,2.79148 -0.37546,-0.13716 0.40467,0.12161 0,0 0.11495,-0.97667 -2.73625,-1.75089 -2.291416,-5.71478 0.966476,0.018 1.858186,-0.50557 2.110506,-1.30388 0.29449,-0.93239 -0.38905,-1.88349 -1.52898,-2.1247 -1.137866,-0.24125 -2.300219,0.31859 -2.595445,1.25043 -0.253007,0.79859 0.215607,1.61052 1.071943,1.97807 -2.09824,3.89659 -3.150667,4.87171 -3.16083,4.90304 -0.002,0.008 -6.64e-4,0.0153 -0.0028,0.0232 -0.369986,-0.0359 -0.07935,-0.15941 -0.467002,-0.18553 -0.07686,-0.41933 -2.046406,-1.31777 -2.956413,-5.88343 1.046107,-0.20034 1.824796,-0.96636 1.824796,-1.88349 0,-1.06905 -1.05897,-1.93688 -2.366236,-1.93688 -1.307266,0 -2.366881,0.86788 -2.366881,1.93688 0,0.91712 0.780815,1.68312 1.826217,1.88349 -0.90598,4.54519 -2.417366,5.38423 -2.508462,5.87602 -0.404694,0.0265 -0.800537,0.0582 -1.18686,0.0954 -0.0028,-0.011 -0.002,-0.0204 -0.006,-0.0306 -0.0095,-0.0314 -0.615431,0.27326 -2.712276,-3.62284 0.854933,-0.3674 1.322878,-1.17901 1.070552,-1.97817 -0.294521,-0.93183 -1.45758,-1.49171 -2.596091,-1.25044 -1.138511,0.24129 -1.822784,1.19231 -1.527624,2.12385 0.253006,0.79937 1.143317,1.3225 2.109796,1.30416 0.444809,3.95945 -1.179126,3.89475 -1.061467,4.88685 -0.397214,0.11852 0.368632,-0.13326 0,0 -1.329807,-1.32336 -0.334028,0.72408 -3.214767,-2.13145 0.702581,-0.54454 0.883533,-1.4288 0.375431,-2.14168 -0.592398,-0.83199 -1.897607,-1.11247 -2.913741,-0.62719 -1.01545,0.48498 -1.358958,1.55234 -0.766535,2.38431 0.50943,0.71231 1.540531,1.01866 2.46486,0.78606 1.732327,3.6915 4.595347,7.06953 4.809153,7.23365 4.171522,0.85736 3.052252,1.04626 8.795327,1.04626 5.740401,0 4.651849,-0.33885 7.661103,-1.7062 0.212222,-0.16444 3.657732,-3.79222 5.434842,-7.58004 -2.09393,1.87933 1.95538,-0.0738 2.46417,-0.78606 0.5711,-0.83141 0.22981,-1.89875 -0.787,-2.38369 z"
       sodipodi:nodetypes="ccccccccccccccssscccccccccccccccccsccccc" />
    <path
       style="stroke-width:0.82215"
       d="m 41.930627,168.00078 2.32563,-0.61169 2.219925,0.7901 0.739975,2.06442 -0.66069,2.2811 -2.233138,0.67541 -2.510627,-0.66266 -0.726761,-2.39579 z"
       id="rect5472"
       inkscape:connector-curvature="0"
       sodipodi:nodetypes="ccccccccc" />
    <g
       id="g5517"
       transform="matrix(2.0907258,0.8030577,-0.83148493,2.0133705,83.488968,181.18075)">
      <path
         sodipodi:nodetypes="cc"
         inkscape:connector-curvature="0"
         id="path5478"
         d="m -18.178292,0.7257084 0.02362,2.2796765"
         style="fill:none;stroke:#000000;stroke-width:0.264583px;stroke-linecap:butt;stroke-linejoin:miter;stroke-opacity:1" />
      <path
         sodipodi:nodetypes="cc"
         inkscape:connector-curvature="0"
         id="path5478-6"
         d="m -19.241349,1.8419155 2.208795,1.11e-5"
         style="fill:none;stroke:#000000;stroke-width:0.264583px;stroke-linecap:butt;stroke-linejoin:miter;stroke-opacity:1" />
      <path
         sodipodi:nodetypes="cc"
         inkscape:connector-curvature="0"
         id="path5478-7"
         d="m -18.916526,1.0741514 1.630018,1.5355393"
         style="fill:none;stroke:#000000;stroke-width:0.264583px;stroke-linecap:butt;stroke-linejoin:miter;stroke-opacity:1" />
      <path
         sodipodi:nodetypes="cc"
         inkscape:connector-curvature="0"
         id="path5478-6-5"
         d="m -18.916525,2.5919611 1.523713,-1.500083"
         style="fill:none;stroke:#000000;stroke-width:0.264583px;stroke-linecap:butt;stroke-linejoin:miter;stroke-opacity:1" />
    </g>
    <path
       style="stroke-width:1.21619"
       d="m 24.564367,172.52172 c 4.707647,4.18088 16.961484,4.00605 22.209902,8.15417 5.248421,4.14811 8.510759,19.32598 13.575799,23.68889 5.06504,4.36291 9.99202,7.70342 9.99202,7.70342 0,0 -7.97253,-2.52789 -13.03961,-6.86944 -5.067077,-4.34155 -7.239182,-16.03186 -12.443035,-20.71564 -5.203859,-4.68377 -15.214931,-3.7815 -19.915733,-7.90968 -4.700798,-4.12818 -8.667016,-14.69218 -8.667016,-14.69218 0,0 3.580032,6.45958 8.287673,10.64046 z"
       id="rect155"
       inkscape:connector-curvature="0"
       sodipodi:nodetypes="zzzczzzcz" />
  </g>
</svg>
