<?xml version="1.0" encoding="UTF-8" standalone="no"?>
<svg
   viewBox="0 0 261.94287 370.56"
   height="370.56"
   width="261.94287"
   id="svg64"
   version="1.1"
   sodipodi:docname="optPawn.svg"
   inkscape:version="1.2 (1:1.2+202206011327+fc4e4096c5)"
   xmlns:inkscape="http://www.inkscape.org/namespaces/inkscape"
   xmlns:sodipodi="http://sodipodi.sourceforge.net/DTD/sodipodi-0.dtd"
   xmlns="http://www.w3.org/2000/svg"
   xmlns:svg="http://www.w3.org/2000/svg"
   xmlns:rdf="http://www.w3.org/1999/02/22-rdf-syntax-ns#"
   xmlns:cc="http://creativecommons.org/ns#"
   xmlns:dc="http://purl.org/dc/elements/1.1/">
  <sodipodi:namedview
     pagecolor="#ffffff"
     bordercolor="#666666"
     borderopacity="1"
     objecttolerance="10"
     gridtolerance="10"
     guidetolerance="10"
     inkscape:pageopacity="0"
     inkscape:pageshadow="2"
     inkscape:window-width="1920"
     inkscape:window-height="1028"
     id="namedview33"
     showgrid="false"
     inkscape:zoom="2.2668394"
     inkscape:cx="207.11657"
     inkscape:cy="187.48571"
     inkscape:window-x="0"
     inkscape:window-y="0"
     inkscape:window-maximized="1"
     inkscape:current-layer="svg64"
     inkscape:showpageshadow="2"
     inkscape:pagecheckerboard="0"
     inkscape:deskcolor="#d1d1d1" />
  <metadata
     id="metadata70">
    <rdf:RDF>
      <cc:Work
         rdf:about="">
        <dc:format>image/svg+xml</dc:format>
        <dc:type
           rdf:resource="http://purl.org/dc/dcmitype/StillImage" />
      </cc:Work>
    </rdf:RDF>
  </metadata>
  <defs
     id="defs68" />
  <g
     id="g35"
     transform="translate(-16.77481,2.1777624)">
    <path
       style="display:inline;fill:#fde1d7;stroke-width:0.274286"
       d="m 134.74509,365.33697 c -12.94064,1.30708 -6.25548,-20.77833 -18.58011,-12.36736 -13.3025,6.03553 -21.811935,-15.63536 -6.0239,-17.27868 16.70522,-2.24497 17.1764,-20.4604 16.53336,-33.56193 -0.13761,-13.67387 -2.29881,-27.2151 -3.28725,-40.83283 -3.04908,-3.97095 -1.97964,-4.48911 -6.36212,-2.45837 -4.00192,-3.83571 -0.86331,-5.72105 -4.29364,-6.24309 -2.51865,-4.27209 2.00034,-10.53731 0.63898,-15.84161 0.22234,-11.29439 2.94539,-22.24402 -4.3773,-31.43393 -3.40125,-10.93764 -3.58242,-21.97536 -3.52625,-33.81017 0.36096,-4.79884 -0.8956,-10.28638 0.42592,-14.67625 5.06982,-12.18314 0.90123,-26.58608 1.16545,-39.64183 -1.16253,-9.34116 -5.25001,-15.86231 -3.98111,-25.319541 -8.974965,-7.001275 4.87914,-20.985742 3.89426,-27.289998 -7.919501,2.274603 -5.28312,-10.272806 -4.54692,-15.29985 -2.23163,-9.078507 -0.82735,-18.692632 3.02445,-25.84326 -1.25373,-9.170695 -12.612941,-25.9736126 5.30379,-21.4872159 10.52079,0.077043 19.69275,4.6087703 14.42847,16.3807539 7.3825,9.910949 14.89456,22.144823 9.40461,35.719238 -0.43804,8.130814 13.33636,2.090319 19.25125,6.499808 13.00157,3.58455 13.17047,17.358719 15.02196,26.258113 2.49191,3.836035 1.12138,11.693281 4.60411,2.440309 6.27882,-8.867049 6.52768,-29.928953 16.91905,-30.688369 11.63748,4.330922 30.84338,-5.208348 34.57742,13.932872 -0.0751,12.987227 8.48819,22.007956 -0.23226,34.1597 -10.38904,27.89143 -20.94646,55.7198 -31.356,83.60353 8.08144,8.97203 17.04004,17.19463 24.65054,26.56522 6.09639,10.35275 -2.95148,14.18415 -10.85623,8.73152 -12.60487,-11.95708 -24.6486,-24.48969 -37.16478,-36.53795 2.27439,5.71375 3.85253,12.87602 0.32095,18.53627 -0.75095,16.0147 1.70293,32.68797 0.96077,48.24211 -13.01365,0.9323 -0.28635,20.5908 -3.57706,29.87443 0.5735,14.14283 -4.79474,28.15183 -1.96917,42.21228 -2.4166,9.60289 4.05932,18.82216 0.75124,28.56328 -10.2627,2.66899 -20.59997,9.62656 -31.74248,8.8928 z m -1.3188,-18.39637 c -1.10671,-0.26519 -2.48712,1.4595 0,0 z m 12.41635,-9.62724 c 7.25479,-10.55222 2.98055,-24.29989 3.71682,-36.28811 -0.64068,-6.12126 -1.5824,-22.80092 -3.76185,-23.15018 -0.6856,13.41618 -6.85076,26.80207 -2.64189,40.18513 -1.133,6.73399 0.71818,15.49127 0.94522,21.08172 l 1.74174,-1.82856 z m -21.7289,-185.26167 c 5.58376,-3.48701 14.47972,3.11919 5.75935,-5.40082 -3.75998,5.37344 -11.29085,4.83969 -13.87479,-3.33658 -1.10871,7.4369 -0.0174,11.51482 8.11544,8.7374 z m -6.1887,-18.64555 c -2.91164,-7.12211 -3.7454,4.13731 0,0 z m 43.09031,-13.01873 c 6.47513,-4.19601 -1.50876,-18.98883 -3.28509,-17.41022 -0.12289,5.93618 -2.93001,33.57749 2.67851,18.91963 z m 7.2512,-29.507455 c 2.43952,-5.848829 -3.7965,2.557811 0,0 z M 118.17917,71.52 c -1.18236,-4.920986 -0.79187,2.797919 0,0 z M 114.5829,45.275259 c 2.93851,-4.090954 -8.39648,1.305982 -2e-5,0 z"
       id="path65"
       inkscape:connector-curvature="0" />
    <path
       style="display:inline;fill:#f4d4ce;stroke-width:0.274286"
       d="m 133.44001,364.95667 c -12.03982,0.46229 -4.43925,-20.81753 -16.87885,-12.15344 -14.66055,6.35888 -22.015685,-16.71163 -4.87848,-17.47603 15.41937,-2.72124 15.59228,-19.89127 14.99465,-32.25099 0.18732,-14.10415 -2.26603,-28.04543 -3.11161,-42.09335 -3.00961,-2.41578 -2.08458,-6.37081 -5.62286,-1.92002 -5.09947,-3.49657 -1.39561,-7.15924 -5.5424,-7.15449 0.88744,-10.97309 1.34371,-24.03424 2.13166,-35.84718 -6.39763,-9.09929 -8.41978,-21.28935 -8.79071,-32.56127 -0.86773,-12.85841 -0.01,-24.98776 2.5473,-37.09687 -1.12729,-13.02021 1.39621,-28.62865 -3.84158,-39.81692 -3.77044,-4.93745 2.9536,-14.393657 -4.02509,-17.44831 -3.658882,-9.270112 8.56314,-18.906606 6.82692,-24.120065 -11.120605,-1.110927 -1.74453,-21.734848 -6.02298,-31.038072 9.29638,-9.418696 0.1914,-20.422502 -1.14405,-31.3539669 10.23124,-1.2018705 32.70925,-1.76682419 25.09243,14.4044439 4.74515,10.626532 15.66797,21.174284 9.66548,35.110394 -3.33585,12.846728 18.08812,1.805366 24.34861,11.278654 10.6019,7.742565 7.3344,19.780767 10.4481,28.963071 4.83104,3.403203 7.46119,-15.642364 11.27306,-21.170846 2.5247,-9.347408 5.87402,-17.828715 15.83348,-10.045723 12.06582,-5.435702 26.97988,0.227869 29.13121,14.125715 0.85491,4.625064 -2.03034,10.79266 2.12571,14.056251 2.74226,11.354364 -7.95841,25.078384 -10.8832,37.386154 -7.87103,21.18832 -16.11573,42.24223 -23.68637,63.53934 7.77368,9.94413 19.20337,17.56746 24.9203,28.74512 5.88497,16.60258 -16.62965,5.69401 -20.21451,-2.40085 -9.43046,-9.27316 -18.81199,-18.5959 -28.21622,-27.89563 3.97459,7.99014 0.43918,15.12788 0.14191,23.07993 -0.14263,14.66218 1.21937,29.29297 1.71988,43.91529 -14.43434,-0.55315 -0.65908,20.316 -4.22447,29.13696 0.53529,14.6703 -4.64865,29.20544 -1.99306,43.78795 -2.55855,9.74521 9.5704,30.30296 -7.54203,30.45318 -8.22538,2.40952 -15.44556,8.13775 -24.58223,5.86157 z m 4.93714,-2.89953 c -0.34065,-1.08133 -0.9842,1.04427 0,0 z m -3.66438,-4.52571 c 12.07954,-3.20395 -4.12247,-3.80344 -2.81881,0.94586 l 2.81877,-0.94586 z m -24.82926,-9.24628 c -1.96309,-3.95249 -1.2306,3.63713 0,0 z m 22.82985,-0.79198 c 3.24555,-2.29089 -4.28961,1.26727 0,0 z m -25.69584,-3.49481 c 5.14446,-8.4479 -5.0649,-2.87778 -0.13383,-0.88029 -2.78285,0.89144 -4.30501,4.04993 0.13383,0.88029 z m -3.39643,-0.72979 c 2.69328,-2.42292 -3.898082,2.12051 0,0 z m 45.37047,-1.1317 c 9.80049,-0.46941 18.61162,-13.25368 8.55027,-18.64734 2.30609,-3.66183 -6.10077,-16.19215 -6.10271,-9.22742 -0.57511,8.68029 1.15603,18.61548 -5.91007,25.242 -4.91542,3.83787 0.66968,3.75626 3.46251,2.63276 z m -1.97471,-6.20876 c 6.0497,-13.95249 2.2904,-30.18616 1.7812,-44.98745 -0.7726,-7.47694 -3.1847,-23.22859 -3.76538,-7.26753 -1.86929,11.48982 -5.23458,23.33731 -1.91268,34.79911 -0.43644,5.28957 -0.93128,20.3114 1.62493,20.21905 l 1.16724,-1.29955 1.10468,-1.46363 z m -31.81684,0.059 c 8.01217,-7.10329 23.25915,-1.34652 24.32812,-15.44204 -0.64223,-7.87576 -11.28891,-22.16742 -2.55333,-21.21988 4.57381,-8.43395 -1.67484,-13.60687 -6.00294,-8.3134 8.43094,-8.15257 -8.4762,-12.8976 -3.73463,-0.92802 0.23898,12.82023 2.45249,26.82316 -3.15081,38.79423 0.73885,1.68348 -15.39852,10.09795 -8.88641,7.10911 z m 42.66992,-23.91851 c -4.86836,-10.06447 -6.27767,-21.5017 -0.3677,-30.8763 4.43564,-6.92636 -0.70943,-32.21656 -9.9407,-22.9497 -0.38104,11.80227 1.37338,25.09906 2.79695,37.49674 -1.24491,5.63817 4.21008,18.53527 7.51141,16.32926 z M 126.6967,265.60151 c 4.65692,-7.36672 -6.57051,-2.55133 -1.25542,4.15847 0.303,-1.41837 0.47542,-2.87317 1.25542,-4.15847 z m -16.62308,-62.42437 c -2.96204,-8.41035 3.95915,-5.47529 3.57663,1.2208 -4.62102,-5.68111 4.19356,-18.96222 -0.54163,-20.30908 -5.49038,2.60113 6.44703,-15.83709 -1.66984,-12.18445 -3.06633,8.74484 -4.03667,27.04151 -1.36509,31.27268 z M 165.38,178.44007 c -1.3202,-2.00021 -5.97626,5.86556 0,0 z m -3.53901,-1.04158 c 4.22792,-5.75587 -8.33605,5.82697 0,0 z m -3.30384,-1.72025 c 5.17184,-3.95844 -6.14764,3.56201 0,0 z m -1.32306,-2.83809 c -0.0686,-4.06395 -7.73894,5.8412 0,0 z M 125.8569,151.8325 c 5.4134,-2.0167 12.5694,2.98703 4.76216,-4.58938 -3.41008,-8.94413 -5.83758,-4.07493 -4.79958,0.65055 -4.35318,5.53103 -14.31364,-11.8604 -5.95662,-12.68318 -5.35158,-8.92215 -4.41712,-0.82076 -4.21192,4.50206 0.1402,8.23011 -2.07911,17.43771 10.20596,12.11995 z m -12.90294,-12.23439 c 1.42104,-3.13698 -4.84318,-23.15388 -4.01308,-12.99646 -0.97048,4.07839 1.05032,23.47175 3.943,17.89879 l 0.0519,-2.23919 0.0182,-2.66314 z m 12.6689,1.13597 c -1.02135,-3.04288 -1.70361,1.98738 0,0 z m 14.6854,-0.49032 c -1.61816,-7.07909 -2.82404,2.88773 0,0 z m -9.47397,-6.76927 c 2.12764,-6.31388 -8.18445,-13.53413 -8.25611,-7.74869 2.72442,2.56641 5.09232,5.72581 8.25611,7.74869 z m 30.28185,-12.97716 c 8.05895,-4.35362 -6.14289,-28.890493 -3.67613,-12.2322 -0.85416,5.91513 -1.51172,31.40758 3.67613,12.2322 z m -45.33914,1.75281 c -0.97074,0.0217 0.44876,2.234 0,0 z m -9.89379,-19.59871 c 1.03683,-4.376646 -0.11854,-16.04639 -1.20896,-5.007039 -2.03569,2.609839 0.57679,13.018109 1.20896,5.007039 z m 63.60164,-5.05975 c 2.5377,-7.769839 -4.98983,2.86437 0,0 z m -3.48058,-3.7892 c 7.94736,-5.269622 -2.82862,-11.793367 -1.52095,-0.711384 -1.13525,1.681719 -0.0596,3.389802 1.52095,0.711384 z M 118.90879,71.833297 c 0.60978,-9.946446 -4.64957,1.381907 1.0179,1.126662 l -0.51731,-0.572605 -0.50059,-0.554097 z m 2.34437,-3.148251 c -0.33757,-8.168438 -3.36967,-2.584371 0.17323,1.642269 z m -9.3963,-5.610018 c -0.42179,-8.756427 -8.15465,1.703405 0,0 z m 2.246,-1.190016 c 3.23109,-5.037265 -3.82479,1.330011 0,0 z m -0.82822,-2.854085 c 2.17234,-4.972542 -4.59832,-11.966371 3.02251,-15.143921 -5.26352,2.024117 -5.5524,-0.853068 -6.39376,-4.766745 -6.16021,-1.621564 -3.88591,7.67296 -5.36815,7.234029 9.46453,3.227377 -7.715092,3.54596 3.50485,5.78328 -1.66375,2.42791 -1.28687,4.072041 0.57406,5.313653 -4.73256,1.865795 3.72406,0.112583 4.66049,1.579704 z m -2.89035,-1.81993 c 0.33816,-2.780536 4.94087,1.295587 0,6e-6 z"
       id="path63"
       inkscape:connector-curvature="0" />
    <path
       style="display:inline;fill:#dcc3b9;stroke-width:0.274286"
       d="m 134.67429,365.1769 c -13.49249,0.77818 -5.37416,-21.98997 -19.04697,-12.22092 -15.29205,4.91097 -19.149414,-16.93997 -3.58862,-17.50721 14.35569,-2.88217 15.74728,-18.76075 14.90523,-30.7833 0.11625,-14.62733 -1.92205,-29.26285 -3.42543,-43.72447 -2.57125,-4.65717 -2.60354,-3.47017 -6.34231,-2.44455 -4.11817,-2.44785 -0.58471,-7.59694 -4.00887,-6.12356 -2.81614,-3.16533 1.81903,-10.42799 0.46471,-15.60845 -0.23973,-10.67664 3.48231,-21.72117 -3.92503,-30.32564 -2.62656,-6.68116 -2.81245,-11.23056 0.16338,-1.51964 6.53646,15.28051 -2.81688,-6.60514 1.70899,-6.5312 3.40221,18.47556 4.60729,-12.50367 2.83949,-15.55663 -8.05344,6.94815 8.00836,-16.33613 -3.2341,-10.8974 -3.87123,3.91759 -0.60828,29.67431 -5.19676,17.58243 -0.0393,-10.50974 -0.46229,-21.03429 -0.33989,-31.53061 5.85482,-10.92407 1.48493,-24.40328 1.96489,-36.33697 0.56984,-11.74938 -6.30977,-18.0734 -3.88063,-29.764872 -7.999188,-5.260126 0.70737,-21.324562 4.85478,-25.485491 -9.475851,-1.436116 -6.1614,-12.306442 -6.22106,-20.45525 -3.336331,-14.118873 7.58774,-24.729929 -1.13809,-38.2931282 -2.763925,-11.1833181 19.17715,-3.8494414 25.08664,-1.2515839 -6.9311,14.3289911 9.50816,20.6981911 9.56194,33.8780811 1.99725,7.073969 -8.05308,20.896094 5.04762,18.482398 11.27626,-1.069688 24.99806,6.422178 27.20835,19.316382 -4.10948,5.257842 2.15518,12.772682 3.4814,16.652717 4.94079,-12.336707 9.91242,-24.661038 14.87028,-36.99089 10.30738,7.911617 24.00075,-4.110992 33.29023,6.272267 8.48537,6.050228 3.54295,17.712176 7.48536,24.812351 5.22698,2.792773 0.57388,7.614066 -0.36706,11.673199 -11.26534,29.95314 -22.5692,59.89189 -33.78357,89.86413 8.20205,8.69026 16.69079,17.12416 24.53323,26.14278 8.50049,17.0594 -13.47397,11.20799 -18.03492,1.49871 -9.93401,-9.04946 -20.25791,-21.65685 -30.01683,-28.53113 5.22676,8.01116 -0.0641,14.91921 0.47251,22.97743 -0.23257,14.32768 1.47362,28.88437 1.14318,42.97581 -13.8681,0.89895 0.30519,21.3514 -3.67308,30.30348 0.0127,14.74222 -4.48504,29.30672 -2.25697,44.01596 -0.74723,10.50845 8.65083,30.85797 -9.68764,29.94654 -6.74821,2.8262 -13.24065,6.63731 -20.91438,5.48823 z m 5.15461,-3.50261 c 17.07345,-3.99701 -7.23991,-13.51881 -8.73835,-2.91823 4.48799,-0.53973 8.66891,-2.75123 3.15827,1.59113 8.54933,-1.95204 2.10789,0.12347 4.07364,2.45015 l 1.50639,-1.12305 z m -9.81926,-8.15182 c 9.66882,-12.20885 -12.93394,4.75518 0,0 z m 30.37464,-3.26529 c 6.59869,-6.82103 0.36881,-17.17256 3.03375,-25.01346 -5.48467,-7.19569 3.28568,-17.23352 -5.46577,-22.80517 -7.83922,-9.89648 12.46356,-17.59133 5.17354,-23.82024 -3.61682,5.11427 -12.25593,13.91243 -5.24897,2.45073 3.26642,-6.25268 7.41267,-12.60551 5.02849,-19.93011 -3.43404,-10.06728 -7.4376,-20.43576 -8.75977,-31.0997 -0.69768,9.86892 1.02919,21.33231 -10.14555,25.18526 1.75584,16.23184 6.14811,32.13645 6.62367,48.54694 2.72607,5.43864 13.22187,19.07138 1.60082,7.81515 -2.39914,1.09523 -1.56584,26.60379 -1.85836,8.31588 0.12007,-15.22082 -0.71212,-30.57857 -4.16333,-45.43734 -1.12128,14.44811 -7.31324,29.04586 -3.32112,43.59276 -0.16762,5.49028 -1.21601,21.80971 2.42435,20.27865 3.77678,-5.10482 7.23002,-14.26844 2.7506,-2.65265 -2.76785,5.17994 -20.12513,15.33359 -4.88216,13.73361 5.91924,-0.64323 11.06752,-1.36068 15.7731,1.48642 l 1.43663,-0.64673 z m -5.13649,-90.36898 c -0.80802,-8.7086 5.9463,-2.00133 0,0 z m -42.41783,88.70563 c 6.34774,-11.94785 -12.10349,4.74991 0,0 z m 18.77409,-0.6449 c 6.87189,-2.88055 -5.38841,1.12248 0,0 z m -26.07879,-2.36396 c 10.86282,-8.85842 -3.99779,-6.64072 -2.00741,-3.96508 5.03958,-1.50054 -6.907458,5.62593 3.08715,0.77954 -0.79001,0.86655 -5.12256,3.9079 -1.07974,3.18554 z m 19.76201,-9.29771 c 10.77889,2.39436 16.48425,1.8203 14.23238,-11.10225 8.21571,-7.18155 -10.1884,-23.06194 -4.88211,-24.46622 7.05942,4.8108 6.70575,-17.03143 5.88427,-18.62005 -4.4795,4.68264 -13.53233,14.77082 -5.79401,2.3752 0.0416,-6.25237 -7.67971,-14.36587 -2.63847,-22.7389 -12.38938,-4.65245 -5.80324,10.39076 -5.99664,17.53615 1.1057,15.59738 3.14926,31.81611 -1.00596,47.0949 -0.055,6.00192 -16.91903,8.70353 -10.6768,13.23088 4.15024,1.01084 6.92757,-2.67302 10.87734,-3.30971 z m 15.42131,-76.2644 c -2.07121,-3.7812 -3.11123,4.11448 0,0 z M 163.34205,180.58 c 8.96226,-7.2223 -6.55019,1.24107 0,0 z m -1.59628,-2.24922 c 7.83634,-6.29277 -8.487,-0.23047 -1.73844,1.21701 z m -2.27056,-2.6829 c 7.97692,-6.99912 -10.17692,5.39107 0,0 z m -3.9519,-0.92956 c 9.22364,-4.94868 -6.08925,-3.29209 -1.22666,0.55025 z m -45.38477,-6.79693 c -2.4345,1.06432 -0.75566,3.60951 0,0 z m 4.78718,-0.93625 c -0.43705,-1.47071 -0.38255,1.87215 0,0 z m -0.98071,-5.0453 c 1.71242,-11.11809 -1.56084,-24.50579 -1.00994,-36.29169 -8.0615,-11.605 -2.88697,12.71613 -3.59157,18.09268 -0.78988,7.63092 -1.37892,9.51802 4.06295,12.09548 -0.0451,1.51386 -3.92508,12.06618 0.53856,6.10353 z m 11.86492,-9.85957 c 5.98599,-1.2769 13.03385,2.98536 5.00034,-4.63482 -2.36183,-7.32358 -8.02535,-8.86238 -6.19799,-2.41065 0.0687,5.89635 -6.23708,0.16161 -6.92641,-5.85155 0.42111,-3.69053 6.15217,-1.68312 -1.37042,-8.17216 0.0319,3.97616 -6.67468,29.87107 9.49448,21.06918 z m -2.10707,-9.84694 c -0.64013,-0.94213 -0.78998,0.5227 0,0 z m 20.24725,-0.66526 c 0.85734,-4.69508 -2.87634,-26.34346 -6.68069,-18.2574 1.23546,5.49584 0.0245,20.05321 -1.20983,6.34463 -2.9785,-2.49007 1.77262,-9.67224 -6.2273,-9.73811 -5.61066,0.60347 -19.97038,-4.3577 -13.26086,2.82565 9.39881,1.07239 14.89737,17.64639 26.1983,19.0949 l 1.18038,-0.26969 z m -19.97296,-2.4574 c -1.28476,-2.74769 -1.85434,0.57674 0,0 z m 37.11349,-18.21924 c 6.01092,-5.80021 0.0251,-17.02633 -3.57734,-18.61565 0.21949,7.62697 -2.41614,21.76865 0.67512,25.56899 1.04601,-2.28449 1.96023,-4.6252 2.90222,-6.95334 z m -54.94206,-14.9694 c 3.03789,-6.345856 -0.61869,-21.167136 -1.91121,-6.851132 0.23034,1.981122 -2.34034,8.079332 1.91121,6.851132 z m 63.68578,-8.499664 c 0.67441,-12.345369 -7.25632,9.068744 0,0 z m -5.26979,-2.146595 c 10.49118,-3.424168 -2.12705,-18.795014 -1.11396,-4.603044 0.39076,1.374915 -3.31063,8.665458 1.11396,4.603044 z M 121.63201,73.198563 c -5.61632,-1.180023 -2.23602,-11.648392 -4.46528,-0.921758 0.73373,1.676713 3.06188,1.526509 4.46528,0.921758 z m 2.51706,-1.73887 c 3.39351,-7.810446 -8.56554,-11.415754 -3.59193,-2.101419 -0.1113,2.176196 1.89821,3.194266 3.59193,2.101419 z m 2.96768,-0.512182 c 1.47615,-4.453285 -2.27554,0.529194 0,0 z M 128.71976,63.36 c 0.38924,-3.735854 -1.80248,7.311664 0,0 z m -17.17683,0.939596 c 8.39093,-3.242765 -2.40282,-5.978419 -4.54469,-3.989288 0.1159,3.52174 2.69932,3.002664 4.54469,3.989288 z m 1.74462,-4.969413 c 2.43603,-5.964277 -3.55126,-11.338412 5.03647,-14.738737 -5.4658,2.743399 -1.14161,-1.828698 -6.79875,-1.080555 -5.44491,-2.959314 13.88622,-1.570247 3.68014,-4.385115 1.32479,4.021641 -9.25215,-2.92021 -11.0105,-0.58127 0.55975,2.723728 -0.78715,1.233293 1.45463,6.857652 -5.879382,0.949831 6.75388,3.582651 -2.20707,5.040789 2.93878,1.999387 0.95141,9.983305 6.58925,7.706061 1.509,-0.222261 1.42315,3.046375 3.25583,1.181175 z m -0.55612,-21.922159 c -1.81077,-0.464117 -1.81425,0.807684 0,0 z"
       id="path61"
       inkscape:connector-curvature="0" />
    <path
       style="display:inline;fill:#d0aba9;stroke-width:0.274286"
       d="m 135.05478,365.08792 c -8.19502,0.27675 -15.68974,-14.30306 -4.96325,-11.31769 8.78568,-10.38518 -6.7873,-0.32315 -6.61687,-3.10133 -6.64703,5.67888 -25.538702,1.2917 -19.98419,-5.91197 6.09807,3.47373 6.11942,-16.44638 10.80575,-4.91693 8.02157,3.90246 19.72253,1.62492 25.44732,-3.93885 0.4853,-9.53088 4.89367,-20.15429 -2.79513,-28.51688 -7.8202,-10.56242 -0.16926,-3.08676 3.67563,-5.14979 2.50244,-9.14995 4.40521,-30.81878 -6.25144,-14.0386 -8.45893,7.18412 10.59122,-11.82574 0.29845,-14.35064 -3.34075,-8.08813 13.37989,-8.89365 5.01985,-15.35095 -6.47097,2.18191 -7.00988,9.55202 -8.53267,1.52859 -2.79436,-4.02644 -7.54778,4.92283 -9.48662,-3.09422 -3.66532,2.76725 -7.478,1.01518 -6.68866,-5.36832 -5.56222,3.53161 0.40352,-15.12034 -0.92394,-22.76784 1.67984,-9.44673 -1.33562,-15.65867 0.0784,-20.01878 -4.11598,-5.43696 -3.58379,-15.05828 -0.94357,-3.56325 2.67873,0.24025 3.14646,-19.03802 2.1773,-23.09768 -10.14271,8.32288 8.10303,-14.89005 -3.93331,-10.83496 -5.77324,3.69334 1.06546,23.71236 -5.16948,20.54901 -0.29237,-11.48333 -0.42582,-22.96976 -0.52004,-34.4562 4.28485,-6.36876 6.75155,-0.1923 5.63317,5.53167 9.33065,-1.8302 0.85137,-16.5406 2.93717,-24.76911 -0.37333,-5.74162 0.48143,-11.80134 -3.29269,-15.83092 -8.26143,-6.98053 -2.75127,-20.12928 -2.08308,-29.218254 -9.890715,0.823765 -8.938,-7.551738 -6.74797,-14.217357 -3.097324,5.805537 1.84484,17.786633 1.44144,6.271587 1.80869,-8.551928 2.34059,-14.333288 0.6538,-12.856623 3.85452,-7.879249 4.78907,-6.137315 10.31074,-7.533452 2.04276,-8.477982 -1.64539,-3.747194 0.74318,-10.597157 -6.95847,-6.359853 5.10524,-3.316074 1.00343,-6.855862 6.06252,-6.399401 -2.5569,1.19553 -0.80492,-4.492165 -7.51203,3.455134 -2.43382,-3.898067 2.93658,-1.317277 0.68365,-7.493382 -19.025694,-5.141813 -14.59418,0.358009 4.20865,6.386506 -2.27216,-1.726858 0.17,6.304911 6.81286,-0.592944 -5.103918,4.354806 -1.77582,-4.69583 -5.355922,-9.365793 6.80372,-15.542146 2.58539,-23.537373 -1.06871,-7.774131 -10.367117,-21.3882391 4.78843,-17.4582781 9.04324,0.2216516 21.14324,2.636418 15.26696,14.4422211 4.67648,10.614125 15.16545,21.250465 9.67447,34.895307 -4.38219,13.432368 16.90538,3.266131 23.19985,11.226701 11.67102,6.903961 9.62998,18.630262 4.1454,28.381996 -3.77693,11.739566 5.34333,0.226813 7.26312,0.785216 -3.823,2.136884 -5.06119,14.55307 1.12828,4.740722 7.19963,-11.962016 10.03585,-28.905997 17.69213,-38.835136 10.92447,8.239478 28.56939,-6.175755 35.13921,10.854331 3.63394,8.490546 1.16539,18.960721 5.73831,25.511133 -11.75529,32.02427 -24.18811,63.80245 -35.75935,95.89115 7.82298,9.52671 18.32549,17.40467 24.77895,27.72188 7.41287,12.9673 -10.43262,11.10508 -14.67819,3.22418 -11.30484,-10.46133 -22.50652,-23.18132 -33.71844,-32.43897 4.95304,7.64685 0.93832,15.75726 0.42715,23.7088 0.0444,14.25028 1.03326,28.48376 1.41344,42.69568 -13.76126,-0.79088 -1.50996,17.63161 -4.17254,25.5157 1.24442,16.28278 -4.56034,32.31862 -2.11714,48.51969 -1.33239,10.6608 9.28331,31.45464 -9.59265,30.33013 -6.56828,2.77252 -12.95163,6.584 -20.42716,5.46003 z m 4.96571,-3.30262 c 18.12334,-3.4137 -7.09022,-15.02685 -9.09764,-2.9877 5.17801,0.18879 6.83768,-2.60444 3.36245,1.72162 6.38809,-0.77705 3.44567,-1.36823 3.12379,2.31814 l 0.76801,0.0586 1.84339,-1.11065 z m 10.5232,-9.3072 c 18.14713,2.52334 12.83627,-16.78819 13.61013,-27.69032 -3.95604,-9.44189 1.73513,-19.70724 -5.05606,-27.95235 2.16031,-6.66925 9.05851,-11.17952 5.03218,-19.58705 -4.17959,4.75879 -13.19861,16.01966 -5.76698,3.2822 6.10642,-8.13499 6.43781,-17.74312 3.85717,-27.27534 -9.0623,-9.57157 -3.44602,-25.40877 -5.13545,-37.55682 1.56594,-11.16556 -6.10147,-6.91607 -3.91645,2.87443 -2.54107,10.33204 5.55849,28.2523 -6.59547,33.14801 -6.45555,8.58285 2.67191,21.96237 -1.99603,32.55648 -3.251,12.42567 -3.52395,25.11513 -2.34524,37.65452 1.20267,9.66884 2.99216,20.09502 -5.57431,26.21167 -0.27117,3.30096 10.55926,0.40119 13.88651,4.33457 z m 3.97246,-39.10985 c -6.20894,-1.93377 -4.75278,-14.7271 -0.89651,-3.87062 1.93479,3.00699 7.71943,10.38674 0.89651,3.87062 z m 0.87049,-53.88786 c -0.35458,-6.15775 4.70883,-5.09763 0,0 z m -41.88924,89.25845 c 11.99752,-12.81606 -16.665367,3.10575 0,0 z m 18.54784,-0.62666 c 6.44307,-4.69379 -9.58917,3.34693 0,0 z m -4.09788,-90.99915 c -0.54042,-8.23234 -1.33757,6.96701 0,0 z m 3.70979,-0.36541 c -0.90955,-5.4391 -0.84677,4.71029 0,0 z m 10.97143,-1.11333 c -1.9597,-3.02182 -1.53518,2.83205 0,0 z m -3.1,-1.94177 c -0.0216,-5.32188 -1.44733,6.35301 0,0 z m -22.9957,-0.38966 c -0.23906,-1.63801 -0.77783,3.97174 0,0 z m -2.64945,-3.97715 c 3.01182,-6.38494 -4.06969,2.15761 0,0 z m 50.31498,-69.22234 c 12.12435,-3.90533 -0.272,-20.07048 -4.80721,-14.39453 -0.52976,5.74692 -12.26252,11.78841 -0.41648,6.90443 9.29309,-11.44982 -9.42715,10.76261 1.15043,2.74548 2.93211,-3.96913 6.01742,-9.97973 2.78725,-0.91304 -10.90036,7.35272 3.44812,5.16792 3.94187,-3.24298 4.23195,2.29365 -12.14244,13.3992 -2.65586,8.90064 z m -54.2784,-10.98666 c 2.07467,-8.36907 -4.0657,4.25183 0,0 z m 5.41504,-3.13413 c -3.47255,0.84188 1.81712,4.29589 0,0 z m 36.83377,-10.63135 c -2.42564,-1.54877 7.89993,-23.96604 0.31767,-9.84266 -0.42479,2.33468 -7.44838,12.03586 -0.31767,9.84266 z m -26.28694,-2.74192 c 6.00737,-0.94465 13.08249,2.24421 5.17284,-5.14867 -2.31597,-5.06136 -14.88996,-19.18745 -15.96211,-14.37507 1.35406,8.26638 -4.99973,26.55213 10.78927,19.52374 z m -3.89611,-6.56327 c -3.12239,-5.34172 -3.72497,-5.6126 -0.53792,-4.54246 -3.866,-7.99589 6.51103,5.04311 0.16739,1.53452 -0.63578,0.87461 2.71132,5.41481 0.37053,3.00794 z m -0.47719,-8.20128 c 0.52047,-1.38116 0.85197,0.99473 0,0 z m 21.07884,6.70209 c 0.91828,-5.4896 -11.86223,-1.15246 -1.28696,0.69277 z m 1.77053,-2.95011 c 0.88237,-6.32077 1.54006,-25.8773 -7.56404,-20.38936 0.62136,5.30317 1.08018,21.68975 -0.436,7.51177 2.00841,-14.24578 -10.17929,-7.62008 -21.20712,-11.05058 -3.07833,9.74202 6.83967,2.29815 10.3343,11.36909 5.67535,4.24529 10.77742,14.38846 18.87286,12.55908 z M 134.58286,127.36 c -0.65341,-2.26115 2.64503,0.15885 0,0 z m 20.42323,7.24373 c 4.71685,-9.4458 -3.00022,-5.92917 -2.35813,0.2425 0.76805,3.42697 -0.26508,5.27088 2.35813,-0.2425 z m 3.4927,-0.95802 c 10.00669,-24.04182 19.04087,-48.53235 29.14767,-72.49874 6.59522,5.463392 14.97298,3.294471 20.9592,-0.747018 -7.50884,1.424879 -15.37704,1.629124 -21.81709,-1.434292 -9.793,24.53097 -19.92059,48.96554 -29.14029,73.70879 -0.39154,0.44081 0.24633,3.73041 0.85051,0.97126 z m 2.92479,-12.86137 c 2.45442,-4.80202 4.41787,-9.61322 -0.029,-14.02524 -6.32743,-14.6931 -4.09521,11.05474 -4.72192,16.28476 -0.31959,11.6009 2.53869,3.36013 4.75096,-2.25952 z m -52.71295,-6.07865 c -2.57537,-6.08153 1.124,7.0536 0,0 z m 59.15224,-11.33235 c -0.95194,-0.47284 -0.45262,1.28057 0,0 z m 37.38772,-20.059054 c 2.25247,-3.96839 6.5895,-15.958541 0.0101,-6.180888 -0.72334,0.289419 -2.2638,10.348393 -0.0101,6.180888 z M 166.5226,79.526181 c 4.69046,-7.448507 -15.94864,-23.499793 -14.99959,-16.505994 6.42588,1.599322 12.2749,6.590263 13.0094,14.452293 0.30414,0.185589 0.74569,3.258492 1.99019,2.053701 z m -39.61211,-6.26945 c 5.8787,-0.832677 13.14853,-11.287139 3.25058,-2.751618 -12.40961,9.615523 0.24785,-9.532581 -9.45321,-7.293403 -5.66731,4.236242 -5.00233,15.871308 6.20263,10.045021 z m -6.97671,-0.978954 c -5.51593,-8.113244 4.04207,-5.349478 0,0 z m 7.85228,-1.39085 c 2.88878,-3.763902 2.48708,-17.104033 -0.0892,-5.881213 0.82523,1.129281 -4.33882,8.776105 0.0892,5.881213 z m -15.4471,-3.991878 c -0.52957,-1.877753 -1.44477,1.129737 0,0 z m 6.64962,-20.249335 c -0.90676,-1.000106 -0.86002,1.531351 0,0 z m 15.91524,-8.417337 c -0.0889,-7.782923 -6.39555,-12.117047 -1.60651,-1.960724 1.13369,5.236138 1.9113,11.821144 1.60651,1.960724 z M 101.60857,343.05104 c 0.19452,-2.72032 1.59191,1.1585 0,0 z m 0.74331,-265.153897 c 0.24004,-1.236317 0.24004,1.236317 0,0 z m 0.25264,-1.257142 c 0.39586,-0.730501 0.12243,1.182606 0,0 z m 0.1279,-12.25143 c -2.62444,-5.899171 1.10297,-19.221931 2.66454,-6.827302 1.88585,4.630958 4.19336,7.600805 -2.66454,6.827302 z m 8.37321,-3.945561 c -2.36225,-3.50637 5.20817,2.393216 0,0 z m -3.45976,-0.118401 c 0.22229,-1.867223 2.48864,0.194855 0,0 z m 6.27736,-6.439296 c 0.34053,-2.614143 1.24947,2.138932 0,0 z m -1.74037,-13.839599 c 2.71182,-1.22422 4.22939,1.155084 0,0 z m -8.37077,-0.55675 c 3.38806,-1.418549 -0.4705,-0.242894 0,0 z m 8.01226,-0.452363 c -0.11574,-3.950072 7.63641,1.56388 0,0 z"
       id="path59"
       inkscape:connector-curvature="0" />
    <path
       style="display:inline;fill:#b19894;stroke-width:0.274286"
       d="m 133.90691,364.80389 c -8.15591,-1.7356 -12.23089,-10.59465 -3.36821,-11.2496 10.31449,-14.76428 -11.91585,1.72236 -19.04804,-0.28833 -8.0698,0.63567 -13.062683,-10.19753 -4.32335,-8.55739 2.70387,-7.35958 3.43785,-10.91669 6.93734,-4.72795 9.03864,4.30207 21.03395,2.84441 28.68496,-2.74614 1.59596,4.77688 -14.38805,14.30357 -1.5008,12.46215 8.13679,3.37387 18.12908,10.55334 25.14333,0.63104 0.77122,11.75908 -17.72927,9.80498 -25.85138,14.59705 -2.21918,0.11798 -4.46868,0.24438 -6.67385,-0.12083 z m 6.4002,-3.00093 c 11.47238,-0.3935 8.11443,-10.96755 -2.52335,-8.71306 -6.0408,0.40341 -10.43677,9.38917 -1.5763,4.87862 -5.49709,3.6538 2.49013,1.90099 2.2981,5.0169 l 1.80152,-1.18245 z m -25.98889,-12.46963 c 15.94558,-8.96853 -15.748112,-5.37529 -2.9318,0.57773 l 2.93176,-0.57773 z m 50.0324,-13.47047 c 0.29897,-1.30264 0.1608,1.65214 0,0 z M 154.29785,312.96 c -6.44033,-4.03114 -3.91301,-13.92524 0.0504,-1.99693 2.71442,3.3758 4.92059,7.05702 -0.0505,1.99693 z m -14.21665,-1.44 c -4.28416,-5.57193 -10.69086,-15.30035 -0.19548,-7.19885 1.97344,0.0334 2.23833,11.02001 0.19548,7.19885 z m 24.67685,-3.29233 c -2.15123,-5.39769 1.26459,-23.22108 2.23319,-19.7013 0.39026,4.52763 -2.32722,23.79778 -2.26662,20.34452 z m -31.61543,-20.02196 c 5.69248,-10.10651 16.00666,-23.5725 8.1517,-34.44214 -2.55803,4.60758 -4.48035,-0.45853 -7.72582,5.1383 -5.77521,3.50103 -6.65516,-12.39399 -6.23566,0.4351 2.28709,-1.98327 -5.64271,4.02349 -2.48201,-2.36253 -1.13168,-9.4064 -2.12519,10.79043 -3.17273,-0.18869 -6.54546,3.87845 -4.56207,-1.25356 -4.75697,-8.05118 -4.90728,-4.04722 -2.49848,-11.29213 -2.71379,-17.03685 1.27144,-12.12503 -0.27396,-23.31839 1.26914,-34.97506 -0.57531,-4.51051 4.48529,-19.65182 -4.1165,-12.8332 8.6224,-3.67606 2.05608,-21.71521 -2.45366,-8.53468 0.9849,4.72035 -0.67258,27.18459 -2.51899,11.95378 -0.26112,-9.9698 -0.28449,-19.94355 -0.37588,-29.91584 4.76856,-1.22081 2.76562,1.70279 6.27573,7.17845 6.91698,-5.79677 0.29755,-15.06375 11.99143,-10.5648 6.14162,0.58135 16.40838,0.71708 6.83878,-6.76307 -2.55779,-9.55322 -19.11127,-13.41543 -17.18596,-23.32157 -6.77663,-1.3612 -8.51232,-12.85114 -1.91316,-3.1195 2.35635,4.14944 -5.20964,-17.32433 -4.76289,-13.41952 -2.03269,0.87407 1.99019,-9.2205 1.96611,-0.68572 4.55604,-2.4283 0.14117,-17.331729 -4.43034,-15.701913 2.38787,-8.228362 -2.59269,-23.853597 7.03024,-23.80854 9.10828,-0.859626 -0.29959,-16.981998 3.53868,-16.433394 6.16131,0.327902 -2.88533,-3.933128 3.75532,-4.492181 4.26587,-11.692026 -13.18724,-11.894459 -16.17175,-6.873289 0.38612,3.120032 4.05357,7.824509 0.97982,3.870587 -1.02885,16.679457 -2.19434,-11.570013 -1.27918,-12.030777 8.67301,-7.28151 -3.74929,-22.1580791 -0.90717,-27.7171521 -0.91953,5.8623243 3.6923,11.7959531 2.0686,1.8955636 -2.6906,-8.7994866 4.37126,5.9675975 4.36449,-0.6693804 1.91224,7.1986019 2.23764,-1.6793434 4.85309,5.6863429 6.19788,-9.45469604 -13.592403,-7.6785774 0.18354,-7.6902111 9.56455,0.7573879 16.18186,3.7181647 11.76481,14.3692761 -2.41782,6.926733 12.47459,10.156746 0.92539,13.367918 10.83094,1.910418 7.09852,23.937138 -1.49104,8.541203 -1.13551,-6.857455 -1.02845,-10.946283 -7.36594,-3.484108 3.13499,4.029545 5.16355,13.585759 0.60401,17.583586 2.41917,6.871125 7.34992,-6.923587 13.05011,-3.069138 11.07869,-1.855409 -3.92608,12.197524 -11.63467,13.904315 -9.48541,16.324044 18.0638,11.438952 19.99999,-0.444033 5.5463,-8.597508 -9.01146,-1.906114 -2.17934,-1.170278 4.65042,1.695841 -15.2685,13.56569 -4.4919,4.274149 7.27915,-1.28185 -3.53581,-10.803494 7.2197,-8.06233 8.54293,0.632223 9.02251,0.763226 10.1866,10.137316 0.4782,5.115745 7.99451,12.065716 3.80537,2.083999 3.54303,-10.817847 12.44474,4.680702 8.1446,10.039812 13.22024,-1.042644 -9.74374,9.653809 -10.59966,10.284956 0.32678,11.682841 9.16364,9.064611 15.38564,3.297041 -12.38173,5.288442 -9.38227,18.49517 -10.47201,30.13334 -4.78773,1.493 -6.74085,15.8067 -1.70711,13.00382 1.26843,-4.96331 5.41711,-11.392 2.02141,-2.67556 -1.64189,8.24721 -16.03187,25.16236 0.39158,22.80578 4.53668,1.60705 18.85349,13.17585 17.05179,10.68892 -5.74956,-10.08425 -29.63003,-10.26826 -18.97529,-24.44395 10.89748,-27.43877 21.58408,-55.00063 32.78344,-82.294642 6.90528,6.375477 17.77367,0.711165 24.30702,-0.184151 -5.31411,-5.041347 12.87369,3.329281 11.73993,8.888408 3.5373,5.316001 0.7295,12.096976 2.33839,17.541569 5.02463,2.754035 3.27712,6.926366 1.16257,11.175566 -11.3599,30.26263 -22.86233,60.47328 -34.00972,90.81476 7.29473,9.65606 16.86608,17.55106 24.47188,27.02815 7.49521,17.79675 -14.99411,9.0056 -19.43505,-0.5122 -9.26718,-7.81242 -20.54664,-23.18585 -28.69072,-26.3717 5.62413,8.13662 -0.79456,14.97813 0.29073,23.25872 0.0672,14.04308 1.02328,28.11813 1.69038,42.05104 -9.95991,4.93601 -10.82579,-7.97924 -12.13094,-15.24672 -1.75593,-10.55379 -1.65141,-21.32885 -2.0559,-32.00143 -9.53389,3.00117 -1.96179,21.8412 -5.32247,31.08259 2.45617,5.0083 -2.76864,15.25189 -6.81312,10.00169 -3.86385,8.6873 3.16487,20.09181 -1.47028,28.8307 -2.17628,1.30103 -14.50057,17.00411 -10.55439,10.24468 z m 5.33208,-6.77022 c -2.09627,1.93873 -0.74107,1.782 0,0 z m -5.78898,-23.40404 c 1.63495,-12.62433 -6.69486,2.97298 0,0 z m 6.66946,-2.13253 c 4.98371,-11.07394 -5.79025,-3.45959 0,0 z m 5.02183,-5.60516 c 3.45757,-10.723 -3.4287,3.30976 0,0 z m -13.63477,-0.39124 c 7.68821,-2.45948 20.37086,-13.69012 11.95456,-19.15771 -6.98405,-2.20635 -8.29057,7.0067 -14.80273,10.37248 -3.55695,5.61295 -9.90059,11.8546 2.84817,8.78523 z m -10.33081,-2.73661 c -6.19614,-8.48345 5.79726,-20.71925 -4.92408,-25.64924 0.36215,7.95375 -5.4007,22.32497 4.92408,25.64924 z M 117.01657,213.12 c 0.87532,-5.37095 5.30476,-11.16174 9.00459,-10.21692 -5.95267,-4.03062 -3.19728,-23.13255 -8.57531,-20.73577 -1.03353,12.35499 -1.3944,24.74464 -1.97418,37.12412 0.5449,-2.049 1.16956,-4.08161 1.5449,-6.17143 z m 47.10861,-32.74236 c 15.22316,-6.39866 -6.27869,-26.30038 -7.48823,-8.84269 -8.80357,1.98402 2.16948,6.52687 4.29006,-0.99815 -6.65477,4.86352 -4.24241,11.00944 3.19817,9.84084 z m -3.63929,-4.86871 c 3.00468,-4.59942 4.47117,-4.66025 0.70725,-0.19796 l -2.21191,1.77595 z m 5.1474,-1.05972 c 2.9694,-6.62111 -2.16351,6.8677 0,0 z m -38.36471,-2.2896 c 16.36418,-3.41021 -14.78977,-2.59715 -8.94039,1.11239 2.94584,-0.60248 5.94573,-0.88527 8.94039,-1.11239 z m -17.15628,-3.02025 c 0.92097,-7.51797 -3.38548,-3.69354 -1.2343,1.74064 l 1.23429,-1.74064 z m 5.63628,-1.94603 c -1.01521,-6.33707 -1.88484,5.87845 0,0 z m 11.13424,-0.25846 c -0.96974,-7.28457 -17.72652,-1.12193 -4.82567,-0.33879 1.56528,0.15244 3.25578,1.15268 4.82567,0.33879 z m 15.11437,-20.16026 c 4.88166,-2.86862 13.00852,-18.5888 4.24574,-5.87564 -6.99905,5.11979 8.58037,-11.65764 5.13331,-13.69671 9.18978,-5.10761 3.28449,-14.32502 -5.81911,-8.71365 -10.92704,-3.10434 -9.33743,5.604 -8.53798,13.12093 0.15522,-9.18733 -1.00736,-16.67471 -12.6306,-13.37806 -5.96589,-3.86689 -14.09287,2.52989 -8.09143,5.33423 3.83484,-2.16007 14.66422,11.76149 20.71654,17.22438 -3.54412,3.48798 1.17899,9.86526 4.98353,5.98452 z m -7.3229,-19.78032 c 1.05441,-0.98338 0.70307,1.01592 0,0 z m -0.674,-6.01534 c 2.01982,-0.76026 -0.24076,-0.11714 0,0 z m 17.68257,22.87667 c 4.54704,-11.51543 -9.13384,5.07162 -1.12517,2.62025 z m -25.51143,-27.26314 c -2.02261,-3.32597 -19.90691,-2.18396 -6.60777,0.17758 2.20247,0.004 4.41424,0.0694 6.60777,-0.17758 z m 1.64572,-20.043909 c -0.90685,-4.143204 -0.83046,3.821009 0,0 z m 2.46857,-0.166488 c -1.37826,-3.798215 -1.19214,3.865527 0,0 z m -2.85065,-7.673088 c -0.37228,-4.788464 -1.35175,2.079198 0,0 z m 2.25007,-0.753054 c -0.73404,-3.886734 -1.03709,3.963091 0,0 z m 76.30344,-0.424312 c -1.57183,-6.805861 11.9848,-22.653595 -0.51595,-11.34856 -2.15665,2.591706 -1.86685,12.613317 0.51595,11.34856 z m 3.80729,-8.794124 c 8.79482,-6.521188 -4.20886,-1.646212 -1.08196,1.165714 z m -49.33872,-9.068934 c -0.70079,-0.983996 -0.70078,0.983997 0,0 z M 125.2461,8.16 c -1.17071,-7.90934431 -1.4589,12.355071 0,0 z m -4.71625,0.8914286 c -0.64712,-14.4395205 -2.92372,10.2877064 0,0 z m -4.21464,-3.7503607 c -0.15252,-3.8178272 -1.88343,1.9633544 0,0 z M 155.18247,287.2967 c 3.97301,-5.24779 7.73345,-19.9309 10.67236,-20.55796 4.04585,9.24594 -6.51306,13.76548 -10.67236,20.55796 z m -22.70246,-23.85544 c 0.55328,-4.1009 1.86194,-2.41544 0,0 z m -19.2,-10.4215 c 1.14099,-6.20773 1.43628,1.33637 0,0 z m 1.50857,-2.04833 c 0.67646,-0.9771 0.33173,1.00283 0,0 z m -3.52,-50.10286 c -1.00937,-1.86284 1.12354,-0.72247 0.41485,0.17599 z m 10.24,-55.77143 c 0.70081,-0.98399 0.70076,0.984 0,0 z m -0.96,-1.37143 c -0.0898,-2.07771 1.49381,0.85058 0,0 z m 1.23428,-1.78285 c 0.68004,-1.4452 0.68004,1.4452 0,0 z m 42.71174,-29.74992 c 2.49209,-5.60319 5.14,-13.448175 0.35112,-5.02333 -5.96985,-3.28997 7.82483,-10.678888 6.50964,-10.148495 -2.19039,4.517955 -4.37811,12.808275 -6.86076,15.171825 z m 3.36827,-19.400621 c 3.08416,-2.81731 -2.23811,2.727464 0,0 z M 119.66451,71.87034 c -1.26775,-1.127911 0.36271,-6.358604 1.2955,0.420883 z m 5.18754,0.09721 c 2.39546,-0.877672 -0.87367,1.417724 0,0 z m 1.46964,-4.082395 c 1.15508,-3.661669 -0.21067,2.509466 0,0 z m -17.49883,-1.826806 c -2.60797,-1.925021 2.80964,1.009222 0,0 z m -6.04706,-2.766917 c -2.02876,-5.550807 0.86666,-17.587621 2.54712,-5.554286 3.79532,3.60524 0.72491,9.568812 -2.54712,5.554286 z m 8.61539,-2.773852 c -0.12245,-1.229496 2.07392,1.366108 0,0 z m -5.72261,-11.876374 c -5.23435,-3.457223 5.74272,1.44732 0,0 z m 10.66346,-4.195449 c -0.36983,-4.066963 -7.95396,1.89625 -3.35458,-3.268961 5.1461,0.450314 6.1356,2.615283 3.35458,3.268961 z m -12.03489,-4.857183 c -0.95777,-1.514504 2.38666,0.289305 0,0 z m 7.47531,-0.912626 c 1.77581,-2.351322 4.43164,1.189928 0,0 z"
       id="path57"
       inkscape:connector-curvature="0" />
    <path
       style="display:inline;fill:#a87e80;stroke-width:0.274286"
       d="m 134.40001,364.7958 c -7.08637,-0.29474 -13.17908,-10.98533 -4.61905,-10.15334 5.45423,-4.36133 5.66951,-12.46361 -2.34035,-5.74504 -6.75933,5.60514 -27.571389,5.46002 -24.06127,-3.28268 6.57356,3.69602 6.82084,-17.89735 9.66026,-5.52171 8.26206,1.61697 11.95066,7.11307 20.49019,1.6624 5.15812,-0.54329 13.66046,-8.1516 6.87988,1.42386 -7.96129,4.28841 -2.97121,8.94968 4.40923,7.13471 5.1549,8.50415 17.7503,4.60977 21.82256,1.35528 -1.23585,10.11962 -17.49904,7.79965 -25.03842,13.00626 -2.38503,0.25659 -4.81412,0.48212 -7.20303,0.12026 z m 6.03428,-2.8758 c 8.34686,-0.1354 11.61737,-8.16019 1.0163,-9.0986 -12.96773,-0.55428 -11.52683,8.90153 -2.27084,10.04319 z m -26.17532,-12.4724 c 15.48946,-4.57704 -8.24097,-11.0966 -5.89223,0.0131 1.68444,1.3931 4.08315,0.38147 5.89223,-0.0131 z m 41.44762,-35.5366 c -3.41451,-4.19748 4.39745,4.42198 0,0 z m -15.8842,-3.05993 c -7.28348,-9.16928 4.42296,-7.84128 1.28133,1.50857 l -1.28138,-1.50857 z m 11.07807,-2.00536 c 0.24002,-1.2363 0.24002,1.23632 0,0 z m -0.19205,-2.27997 c -0.72822,-3.31607 1.67335,1.8586 0,0 z m 14.5606,-7.61532 c 1.65088,-15.76869 1.06393,9.28212 0,0 z m -9.749,-12.19326 c 1.31878,-2.92597 3.63557,-4.37825 0,0 z m -15.36283,-6.29258 c -2.05118,-4.84935 7.74542,-19.61769 5.16814,-5.19207 -0.13928,1.54971 -5.7066,6.84358 -5.16814,5.19207 z M 161.1577,279.36 c -1.19005,-1.51463 4.5737,-19.34144 5.13416,-8.54453 1.2087,3.80963 -2.82398,6.30927 -5.13416,8.54453 z m -30.87198,-20.2016 c 2.63828,-1.60997 3.30006,1.06112 0,0 z m 3.33625,-1.22 c 0.95753,-8.78063 -6.49335,-2.56678 -10.36479,-4.3135 -2.95662,7.81492 -2.84596,-5.84862 -6.02848,3.26946 0.92972,-1.49466 2.42233,-10.51809 -2.85106,-13.61245 9.28627,12.97643 23.56375,5.27227 32.02232,-4.25204 5.71661,-8.46514 -3.03765,-15.15238 -6.85583,-20.53287 -6.13963,6.73131 -8.32495,24.91457 -17.99519,24.34875 -3.65376,-7.96088 10.16122,-23.76204 3.30665,-26.40193 -2.62339,2.2265 -9.44562,9.33668 -5.00435,-1.3927 -3.39951,1.0322 2.03542,-5.77551 2.98379,-4.67398 0.22171,-1.51073 9.13976,-0.46709 3.63443,-2.08626 9.56715,-7.2129 -3.41134,-6.57843 -3.33895,-16.55186 -3.31855,-7.39558 0.95355,-16.16447 4.34176,-4.06262 9.3104,8.20978 6.55443,-16.19213 -4.55702,-9.54684 -5.92566,-3.77265 -9.08047,8.75966 -7.60633,0.4457 -1.01372,-9.77143 30.26655,0.35533 19.24659,-10.14036 -5.64833,-4.39885 -15.64038,-12.21321 -21.21938,-0.9025 3.45959,2.65087 3.72272,-1.08683 2.82353,5.869 -10.6352,-11.94388 -5.40271,19.35327 -8.87677,18.5534 -0.16567,-10.2043 -2.19819,-28.86899 0.78536,-34.24049 2.17598,4.08969 0.76173,5.87651 4.55726,8.64965 2.77273,-6.97444 4.15379,-16.06736 14.50563,-11.92342 18.1718,1.79451 -3.05448,-15.73521 -8.18973,-21.12917 -13.04003,-8.42512 3.62424,-13.67005 8.41626,-1.81744 4.02309,4.50258 13.01721,9.06002 6.45502,15.30819 8.04019,13.45133 17.71259,-14.55006 18.26973,-9.53825 -6.84925,6.58043 -0.94158,12.39958 -3.64095,19.81176 12.65528,2.14578 21.941,15.03 32.03825,18.69555 -6.65815,-10.54174 -18.45924,-17.0176 -28.62968,-22.88351 11.393,-30.60215 23.80687,-60.866188 35.91006,-91.183167 9.07667,8.728117 19.856,-4.679392 29.81337,3.597517 -3.77948,-8.8303 10.0397,6.983049 7.76339,13.033978 -3.23586,7.568624 6.51732,11.535062 2.72425,17.826397 -11.78901,31.233255 -23.54952,62.477915 -35.15297,93.780485 7.35257,10.31654 19.00271,17.75721 24.95892,28.83169 5.63168,16.06176 -15.64957,5.51633 -19.41745,-2.41372 -9.50314,-7.99497 -20.50309,-22.83743 -29.15915,-26.68627 6.07969,11.12509 -2.61354,21.69001 0.6179,33.70621 -2.35282,9.1808 6.39671,28.56246 -2.50387,31.94047 -4.9888,2.51773 -3.5296,-6.58069 -7.20239,-8.88685 -1.7353,-12.52914 -2.3081,-25.18256 -2.57456,-37.82667 -10.23253,-2.75308 -2.4094,17.97969 -5.41734,24.16585 -1.5437,6.57275 2.86196,17.1711 -5.74186,17.52123 3.46022,-9.86848 -6.61548,-2.00559 -3.29143,3.10077 -4.68211,1.94002 1.04187,-7.31072 -5.89747,-2.42393 -1.25052,2.43051 0.37878,8.6666 -3.65747,6.96674 z m 32.04367,-10.2495 c -0.13236,-5.18608 -2.75108,2.77087 -2e-5,3e-5 z m -3.99941,-10.59501 c -1.06595,-6.80767 -2.25963,-19.32039 -3.03188,-22.48522 1.46572,5.0441 -2.21698,22.91864 3.03188,22.48522 z m -42.29708,-18.54303 c -1.2652,-0.52127 0.53536,2.08684 0,0 z m 0.95537,-1.64229 c -0.52803,0.11896 0.39294,1.20232 0,0 z m 0.63549,-3.9419 c -0.84799,-1.48274 -0.48739,1.8616 0,0 z m 43.57788,-32.74022 c 11.18474,-4.84997 1.99226,-18.91625 -5.24701,-15.5543 -0.15242,7.8574 -11.80134,7.89165 -1.75168,13.70219 1.68651,1.64578 4.69325,4.9707 6.99869,1.85211 z m -53.60184,-12.16364 c -3.02768,-12.43868 -3.79165,11.04639 -10e-6,0 z m 97.5211,-77.206539 c -1.19758,-6.332629 -2.30509,-9.543723 1.10731,-4.544067 15.66968,-0.04528 -0.0797,-26.401668 -5.12573,-7.973289 -1.55391,3.984671 -0.26695,12.143101 4.01842,12.517356 z m -1.07548,-10.37627 c 0.39586,-0.730501 0.12243,1.182606 0,0 z M 125.39722,257.12741 c 1.01254,-1.3799 0.40386,1.1284 0,0 z m 3.79365,-0.66305 c -0.93583,-1.90101 2.10876,0.85598 0,0 z m 16.31771,-8.23579 c 0.70306,-1.01591 1.05438,0.98337 0,0 z m -30.41829,-39.11314 c -0.24166,-2.16171 1.61268,0.86696 0,0 z m 38.36839,-69.23648 c 0.21641,-1.70098 1.4665,0.41691 0,0 z m -5.0701,-4.10752 c 0.85508,-1.69172 0.85508,1.69172 0,0 z m 8.71001,-4.8 c 0.59997,-2.39342 0.17827,2.38909 0,0 z m -3.91001,-2.88 c 0.33169,-1.00284 0.67649,0.97707 0,0 z m -1.50857,-0.82286 c 0.70081,-0.98399 0.70076,0.984 0,0 z M 111.91798,122.4 c -6.57248,-8.15428 5.4248,3.66718 0,0 z m 2.08318,-1.98857 c -0.0182,-8.41603 -8.63912,-13.98681 -2.64344,-15.64688 -0.36705,-12.032676 -7.78761,-13.756246 -3.94968,-26.399941 -3.67165,-9.122926 6.85783,-14.619048 10.67065,-11.822292 -5.0588,16.474368 22.12927,5.666544 22.33666,-5.432267 10.24373,-7.117359 2.01769,15.843254 13.15097,18.691082 5.73667,5.495823 17.06083,0.141216 5.99319,7.109461 -9.70343,0.651303 -10.65203,8.179081 -3.28634,13.140927 3.54897,7.84124 -0.1284,21.68981 -12.81605,18.26581 -5.52057,0.7816 -26.97885,-1.17055 -10.90854,-0.74123 6.16496,1.03337 12.10166,-1.72548 1.92407,-1.71035 -8.69935,-0.74965 -24.04506,-5.50421 -20.3881,5.02989 z m 15.32456,-22.598818 c 6.29698,-4.733925 -9.15224,-1.200766 0,0 z m -1.30112,-8.992386 c 11.64887,-0.895696 -7.64473,-3.809134 0,0 z m -20.06574,28.409484 c -0.40005,-1.94189 0.9878,1.29774 0,0 z m -0.3887,-11.91936 c -2.33375,-3.56385 3.91296,-1.28715 0,0 z m 55.90413,-0.15336 c 4.8013,-7.412626 5.06665,-0.47808 0,0 z m 5.22675,-3.82473 c 2.4746,-1.414701 -1.54082,2.07788 0,0 z m 1.34662,-3.119364 c 2.63808,-4.194311 -1.30406,3.849544 0,0 z M 158.44928,75.977143 c -1.63934,-5.978057 -1.37025,-7.156275 0.53111,-5.211429 1.56863,-1.761372 2.02532,11.624351 -0.17554,1.656387 0.0192,1.140779 0.63917,7.4314 -0.35557,3.555042 z m -27.61499,-6.745158 c 3.05985,-2.86497 2.41889,-0.902249 0,0 z m -15.21935,-4.220601 c -2.03994,-7.559461 8.36545,-6.35733 9.39817,-12.299166 7.69477,0.354378 11.86374,2.670198 2.43656,6.31098 -3.82659,1.728162 -7.99114,5.228707 -11.83473,5.988186 z m 20.70507,-0.949481 c 0.52048,-1.381146 0.85197,0.994723 0,0 z m -31.99487,-0.361959 c -1.07961,-5.960975 -0.77014,-13.930994 1.69536,-3.238269 1.46746,1.582415 1.49237,4.061352 -1.69536,3.238269 z m 11.6093,-9.706343 c -8.1022,-4.806504 10.04233,-4.657974 0.3039,0.312864 z m -12.66586,-1.879315 c 0.67647,-0.977085 0.33171,1.002837 0,0 z m 1.37267,-6.855124 c -0.39208,-2.561287 1.69103,0.235512 -2e-5,0 z m -1.94319,-1.53108 c 1.58521,-4.672288 2.61451,1.594904 0,0 z m 9.6745,0.332824 c -1.0295,-3.778114 2.3021,1.205271 0,0 z m 4.53545,-0.18754 c -9.01245,-2.348414 -1.5176,-3.613309 0.61714,0.01825 -0.15895,-0.0995 -1.22053,1.604299 -0.61714,-0.01825 z m 12.28191,-2.626483 c -9.50631,-5.068383 0.79972,-10.936392 1.22448,-2.504026 -0.009,0.499271 1.30202,5.269745 -1.22448,2.504026 z m -24.8242,-2.024026 c 1.05441,-0.983364 0.70304,1.015915 0,0 z m 7.68,-0.822857 c 2.6942,-1.021067 2.04046,1.037668 0,0 z m -7.39348,-1.357912 c -4.45246,-2.183378 6.15147,-15.572378 0.20048,-21.256332 1.99267,-5.247887 -1.06849,-14.246444 2.25893,-3.025747 3.45377,4.897638 15.59475,-2.9092244 17.54444,3.244976 -1.51828,6.575043 9.73659,11.8251 -1.98143,12.746895 -7.29272,5.449069 -8.01322,8.794454 -18.02242,8.290208 z"
       id="path55"
       inkscape:connector-curvature="0" />
    <path
       style="display:inline;fill:#a28871;stroke-width:0.274286"
       d="m 134.40001,364.7958 c -7.29442,-0.39565 -13.45428,-11.49472 -4.32365,-10.38229 8.89541,-9.38471 -0.16681,-8.23915 -7.19327,-3.87113 -6.01891,6.59544 -24.501666,-0.44115 -19.09198,-4.32024 6.44444,1.18344 6.18575,-17.70412 9.23796,-6.12938 7.76349,-0.3675 10.84692,9.12317 18.30301,2.00675 5.73621,0.52092 16.99915,-8.67782 8.38501,1.4549 -11.65677,9.27768 9.77918,3.36313 12.01269,12.95022 4.92027,-2.10664 12.28842,-0.30255 14.82979,-5.35034 -0.84487,10.60873 -17.20649,8.37429 -24.96642,13.5121 -2.38193,0.25253 -4.80668,0.48507 -7.19314,0.12941 z m 5.80203,-2.64255 c 8.40522,0.1203 11.86757,-8.62594 1.66464,-9.40832 -11.73602,-0.8763 -16.01922,8.96747 -1.66464,9.40832 z m -25.82271,-12.56423 c 14.91635,-4.03285 -5.66754,-12.13734 -6.68142,-0.95077 1.33903,2.3419 4.67035,1.55142 6.68142,0.95077 z m 24.96375,-39.82708 c -3.61094,-8.54901 4.00121,-4.20259 1.61875,2.10092 l -1.61866,-2.10092 z m 1.59865,-31.28668 c -0.57819,-11.59436 8.70491,-9.92823 2.6161,-0.99088 -0.2888,0.12253 -3.15878,4.22077 -2.6161,0.99088 z m 21.34366,-1.26182 c -1.01065,-6.25892 5.30759,-16.00512 4.02237,-3.656 -0.55291,0.20392 -4.51434,6.9454 -4.02237,3.656 z M 130.28572,258.984 c 4.49838,-1.31942 0.99635,0.8201 0,0 z m 3.33625,-1.04579 c 1.10502,-9.61827 -5.80474,-1.01013 -9.44413,-5.24627 -3.22764,9.90931 -3.90139,-4.32452 -6.04165,3.02707 -2.33854,3.78446 3.23057,-10.05769 -3.56681,-12.01615 8.01754,10.43525 20.5083,7.70635 28.44759,-1.37544 6.79498,-3.24313 7.43084,-10.02382 7.00594,-16.46816 0.37722,-14.45489 1.13195,-28.89891 1.31517,-43.35891 -4.10768,-3.78704 -8.46862,12.47709 -1.11266,4.26085 -0.10238,10.02571 -9.00848,18.74439 -6.22059,28.14166 2.809,12.5962 -2.67341,-10.59183 -4.59713,1.78798 -4.76845,7.98217 -8.26167,19.6596 -14.57066,24.94475 -2.43241,-11.25706 8.79024,-24.63068 9.08263,-32.73351 -11.60016,11.20325 2.07971,-5.82304 0.50093,-7.11286 -3.35555,4.93358 -11.32686,9.59787 -3.70312,1.42562 4.50109,-5.29839 6.70826,-12.78248 0.66834,-2.6178 -10.43433,6.49212 -10.22954,-33.12992 -5.6988,-11.2633 1.99131,17.66512 24.65439,-10.84525 8.40089,-12.41701 -7.5159,-4.43025 -18.85259,1.88087 -18.85696,2.91485 1.74669,-10.89445 23.22482,-0.8835 24.7133,-8.55882 -1.56946,-6.59152 -14.13244,-0.74121 -9.38426,-9.30143 -6.6575,-3.49132 -14.81009,1.9896 -17.76515,4.21732 2.72649,-7.32292 4.29412,-15.87691 14.95921,-11.73368 17.60851,1.7094 -4.10134,-16.03931 -8.87343,-21.33038 -10.71533,-2.42328 -1.06399,-14.10894 3.30781,-6.70406 4.70554,5.08224 10.59954,9.4397 14.29698,15.17493 -10.11494,8.62338 9.96884,13.42655 10.81374,1.85586 5.54989,-7.63865 3.48815,-4.10566 -0.28205,1.71838 8.20905,3.52071 -5.50885,13.47145 6.41434,13.88285 14.15719,1.88561 -0.65398,12.67934 0.0714,16.09187 6.13738,10.11352 15.97745,5.10956 17.6122,-5.08739 3.35706,4.29775 15.27904,13.87649 6.86438,1.98179 -5.4662,-9.99758 -22.78608,-13.14186 -25.28884,-21.67076 11.40515,-29.43514 23.21235,-58.718271 34.8403,-88.063792 9.18098,7.241443 21.53963,-4.523408 31.29821,3.31109 2.35768,-3.36056 8.68627,13.299557 6.38825,19.705505 -0.27566,4.308012 7.26035,5.988756 2.82272,10.737031 -11.85365,31.321596 -23.71483,62.643146 -35.21728,94.095086 7.56365,9.81127 18.31128,17.48536 24.78167,27.88729 7.12363,16.31363 -14.70697,7.28558 -18.45654,-0.99999 -9.84773,-9.60783 -19.4034,-19.52201 -29.49038,-28.88028 0.14409,5.02237 3.69204,9.90495 1.78668,15.5758 -2.37035,3.03193 -2.09754,7.227 -1.84804,11.60668 0.0634,13.23894 1.23968,26.45927 1.5078,39.65365 -8.31824,3.81324 -9.44905,-5.53647 -11.06477,-12.16462 -3.21878,-7.60703 7.08997,-0.52873 3.42316,-8.88525 -1.21381,-13.38514 -1.19309,-27.32246 -4.97008,-40.20515 -1.69505,-3.04796 -0.17125,7.34924 -0.53369,9.86762 1.79365,6.86482 -9.09177,2.90772 -5.42832,12.13975 -0.96658,10.28074 0.82285,23.73785 -2.00012,31.97027 -6.02535,10.17483 -1.19327,-10.04816 -7.62697,0.0977 2.30021,5.25826 -3.09028,7.64384 -1.74695,2.07048 -6.47138,-3.4958 -2.83883,10.47146 -7.53427,8.05132 z m 32.04367,-10.24931 c -0.13236,-5.18608 -2.75108,2.77087 -2e-5,3e-5 z M 208.44543,89.023474 c -3.93595,-11.389678 2.7261,6.317718 7.6495,-3.812259 6.40556,-12.935462 -12.2304,-19.023665 -12.351,-3.571955 -2.42347,2.900504 7.04083,15.104032 4.7015,7.384214 z M 125.38972,257.01943 c 0.70422,-1.02443 0.64521,0.84452 0,0 z m 4.00457,-0.47707 c -1.61902,-1.56607 1.86274,0.38888 0,0 z m 16.38857,-8.31379 c 0.33174,-1.00282 0.67645,0.9771 0,0 z m -0.51922,-31.97672 c -0.35915,-4.35399 2.22126,1.24937 0,0 z M 144.18287,213.76 c 0.009,-4.4013 3.87619,-6.03845 0.45446,0.0796 z m 2.34807,-0.4817 c 1.31372,-2.95693 0.0589,2.1194 -2e-5,0 z m -39.14512,-21.07259 c 0.2157,-8.57582 -1.9251,-33.45516 0.82785,-32.91759 0.978,6.74969 14.54869,16.35972 3.56564,10.85683 -6.6253,5.28085 -0.33906,18.93246 -4.39349,22.06076 z m 2.6913,-21.27061 c 3.4053,-7.16891 -5.0441,-9.09773 -1.54799,0.42145 l 0.38951,1.56378 z m 4.57431,-45.55415 c 0.45258,-1.28057 0.95196,0.4728 0,0 z m -2.81142,-3.13826 c -2.72642,-3.29335 3.59893,2.45268 0,0 z m 24.06857,-4.02555 c 0.70306,-1.01591 1.05438,0.98337 0,0 z m 2.74286,0.003 c 11.40604,-3.38447 -11.56883,-2.62227 -15.78451,-3.70919 -15.44607,4.40275 -9.8124,-12.98507 -13.59631,-22.506593 -3.02438,-3.182291 -3.06535,-21.021947 1.83232,-24.661446 9.22123,-3.910574 5.41068,-0.572558 6.44144,6.179481 12.57389,7.951521 19.57062,-10.254 26.43077,-13.680949 1.01879,6.519583 5.22883,26.297193 19.2382,23.534836 2.31999,4.023344 -19.80573,4.058885 -10.35946,12.781237 4.61704,4.868584 5.57504,9.164874 3.54801,17.728014 -1.41331,5.37798 -13.07623,3.82033 -17.75046,4.33461 z m -8.43429,-20.450473 c 1.41906,-7.456319 -8.96414,1.676356 0,0 z m -1.09714,-8.36042 c 5.25686,-4.33781 -8.24432,-1.335238 0,0 z m -15.16557,27.692833 c 0.0342,-2.06742 1.27669,1.64698 0,0 z m 49.79414,-12.06438 c 4.01682,-5.316946 5.29875,-2.30885 0,0 z m -56.16,-0.17757 c -1.36902,-2.13124 3.22036,-1.44795 0,0 z m 61.23429,-3.37417 c 0.67648,-0.97707 0.33168,1.00283 0,0 z M 170.35346,97.92 c 1.59696,-2.27133 -0.8322,1.783277 0,0 z M 159.72894,74.731027 c -0.14784,-2.442377 1.91025,1.779748 0,0 z m -1.50144,-0.05674 c -1.3195,-6.244154 0.89247,-3.148525 0,0 z m 1.19659,-2.094605 c -0.49926,-2.270849 1.38946,1.543316 0,0 z m -43.52623,-7.516117 c 1.01409,-4.822886 8.1752,-12.42644 14.6622,-10.650016 8.00782,0.346623 -9.01536,6.782426 -11.2707,9.010544 l -2.48254,1.310346 -0.90891,0.329128 z m -11.35117,-2.987272 c -1.09682,-8.757061 -0.73005,-7.601175 2.23206,0.03766 1.08562,1.915856 -3.07241,2.206669 -2.23206,-0.03766 z m 11.04242,-9.395012 c -5.21042,-5.396483 5.65743,2.830605 0,0 z m 2.62804,-1.389852 c 1.75456,-1.907898 -0.42937,1.909158 0,0 z m -13.57714,-6.308572 c -0.0898,-2.077713 1.4938,0.850569 0,0 z m -1.90545,-1.273958 c 1.08334,-4.358746 3.37266,1.39944 0,0 z m 9.64278,0.259866 c -0.13221,-2.680562 1.91862,0.23305 0,0 z m 4.74267,-0.464579 c -12.78915,-2.92297 1.77001,-2.266548 0,0 z m 12.34285,-2.669771 c -10.11628,-9.27693 1.85682,-5.616218 0,0 z m -24.88327,-4.058699 c -0.41371,-8.258494 5.2179,-12.692278 1.31351,-19.813216 -0.20284,-9.7317845 1.99965,3.271489 8.83996,-2.193785 8.54607,-2.345176 10.49316,1.234737 11.65466,8.080349 6.67195,6.161266 -12.47961,6.651672 -13.65626,12.789528 -2.78439,-0.288303 -5.24002,3.78767 -8.15187,1.137124 z M 102.85715,36.48 c 0.70079,-0.983998 0.70079,0.983998 0,0 z m 25.50857,-1.250474 c 0.84154,-0.972357 0.16164,1.351692 0,0 z"
       id="path53"
       inkscape:connector-curvature="0" />
    <path
       style="fill:#907169;stroke-width:0.274286"
       d="m 134.88198,364.79076 c -7.2329,-0.15887 -13.71241,-10.43759 -4.78788,-10.35497 10.03298,-11.28726 -2.39248,-6.49341 -9.30032,-3.25911 -5.70963,6.29606 -23.049736,-2.87284 -16.48329,-4.57345 6.29389,-0.90512 5.7612,-17.16202 8.70459,-6.33119 7.69282,-0.53125 10.92749,8.99183 18.31725,1.82755 5.86188,0.45224 17.07234,-8.68819 8.18232,1.55169 -7.06019,3.85899 -2.40617,9.16095 4.53969,6.63311 5.98676,6.43454 16.29876,7.98862 22.39033,0.64872 -0.33757,11.08308 -18.09318,8.91751 -26.04638,13.89805 -1.82844,0.22836 -3.69363,0.26309 -5.51631,-0.0404 z m 5.32006,-2.63751 c 8.43654,0.0568 12.1481,-8.86374 1.26587,-9.47382 -7.9722,-1.15632 -15.76029,7.23919 -5.19629,9.24474 0.45651,1.77576 3.09234,1.46208 3.93042,0.22908 z m -25.82489,-12.56138 c 14.58553,-3.93598 -4.87004,-12.05128 -6.85714,-1.30776 0.91883,3.03736 4.71531,1.76373 6.85714,1.30776 z m 25.59492,-38.89473 c -3.01457,-4.3756 2.02831,-9.14375 0.88263,0.22383 l -0.009,0.94181 -0.87404,-1.16572 z m 1.59083,-31.99521 c -1.48034,-8.09693 6.63471,-14.08812 3.03427,-2.40499 -0.75736,0.76023 -3.39517,4.44599 -3.03427,2.40499 z m 21.29746,-2.61194 c -1.07048,-6.4988 4.68033,-13.93321 3.35821,-2.62197 -0.47298,0.54983 -3.7208,5.95727 -3.35821,2.62197 z m -27.41478,-18.88254 c -0.47828,-7.28548 1.24277,-0.14822 0,0 z M 164.17763,253.92 c -3.47819,-5.10131 -7.48575,-16.57816 -0.3685,-16.18735 -1.32769,-14.41405 -1.48786,-29.28259 -4.99096,-43.31538 -2.22363,-5.25773 -0.47825,6.06314 -0.87535,8.43491 2.38072,7.66927 -8.96037,3.44913 -5.4125,12.89476 -0.62624,10.08783 0.28216,22.34497 -1.83747,31.01691 -3.61184,9.10124 -0.0373,-12.32171 -7.43281,-1.39873 -5.71573,6.64657 -16.9574,9.77129 -23.67143,4.21875 -5.86185,-7.40248 10.79072,7.84006 15.12075,-1.25658 6.12966,-4.81361 16.78994,-9.31102 15.21281,-18.70565 0.36037,-15.71055 1.20883,-31.40688 1.416,-47.12126 -4.10756,-3.78702 -8.46871,12.47707 -1.11266,4.26085 -0.10238,10.02572 -9.00849,18.74438 -6.2206,28.14166 2.809,12.5962 -2.67341,-10.59183 -4.59713,1.78798 -4.76845,7.98217 -8.26167,19.6596 -14.57066,24.94475 -2.43241,-11.25706 8.79024,-24.63068 9.08263,-32.73351 -11.60016,11.20325 2.07971,-5.82304 0.50093,-7.11286 -3.35555,4.93358 -11.32686,9.59787 -3.70312,1.42562 4.50109,-5.29839 6.70826,-12.78248 0.66834,-2.6178 -10.43433,6.49212 -10.22954,-33.12992 -5.6988,-11.2633 1.99131,17.66512 24.65439,-10.84525 8.40089,-12.41701 -5.23329,-1.69498 -24.13873,0.53985 -8.83235,-2.30488 9.29163,1.92529 22.40105,-2.47172 9.66967,-7.88705 -9.25654,3.39198 -0.0578,-9.33052 -10.53541,-5.3706 -6.30382,-2.69999 -15.8866,11.99656 -9.19024,-0.36505 0.47021,-11.19274 12.36076,-4.98937 20.08929,-6.6289 1.35241,-0.51854 9.79053,-4.00928 11.86088,-9.0038 7.50954,4.18156 -5.7281,14.19964 7.74178,14.46518 11.77784,2.90101 -2.63959,12.5393 -1.39147,15.427 6.78871,10.69202 15.70934,3.22416 18.1337,-4.64371 3.51255,3.01696 16.23742,18.01325 9.09748,4.76543 -6.95008,-10.43515 -19.86724,-16.79122 -28.6579,-23.22853 11.72487,-30.15556 23.72854,-60.210539 35.78381,-90.234197 10.26538,8.553393 27.35268,-7.289849 34.27524,9.587211 1.39059,4.6123 2.1478,16.453899 2.0228,4.813252 -1.59848,-5.634771 -5.27637,-15.245847 -0.11696,-3.995935 0.19816,7.890172 2.33132,15.593364 4.82544,21.408032 -12.28064,32.025297 -24.30496,64.154027 -36.04061,96.379587 7.47404,10.05991 18.76646,17.59759 24.89129,28.37046 5.84558,17.1341 -16.58708,4.78434 -20.33381,-3.17063 -9.34521,-8.63968 -18.53148,-19.86584 -28.09728,-26.66987 2.22778,5.47478 4.50844,13.51821 0.20214,18.37557 -0.0998,13.6271 1.00166,27.27052 1.2157,40.83694 -3.84859,-3.3704 -12.4464,-3.65816 -6.96513,0.0674 3.04479,2.88788 11.34209,7.46153 1.54099,7.99895 -1.51103,0.58901 -0.8079,-1.23135 -1.09941,-1.9886 z m -31.28619,-89.00252 c 5.40652,-8.30412 -3.71103,3.81828 0,0 z m -9.60001,-9.26672 c -8.14162,-1.61147 -6.27702,0.69311 0,0 z M 214.22922,91.2 c 11.43719,-7.34586 -0.0226,-28.777488 -9.20976,-14.827624 -4.21884,6.56356 1.48221,19.933088 9.20976,14.827624 z m -5.29747,-1.896019 c -4.3466,-8.248341 1.6756,-0.307065 0,0 z m 14.69519,-1.052552 c -1.25743,-2.555571 -0.23617,3.253599 0,0 z M 142.62858,250.42286 c 0.70076,-0.984 0.70081,0.98399 0,0 z m 2.63506,-34.17101 c -0.35915,-4.35399 2.22126,1.24937 0,0 z M 144.18287,213.76 c 0.009,-4.4013 3.87619,-6.03845 0.45446,0.0796 z m 2.34807,-0.4817 c 1.31372,-2.95693 0.0589,2.1194 -2e-5,0 z m -39.14297,-21.06187 c 0.21315,-8.57941 -1.9278,-33.462 0.8257,-32.92831 0.43863,5.81848 14.81671,17.17695 3.77152,10.57265 -6.85099,5.32036 -0.51594,18.72893 -4.59722,22.35566 z m 2.68915,-21.28133 c 2.70265,-9.69708 -4.82951,-6.26191 -1.16652,1.9902 z m 5.91795,9.88776 c -1.00268,-6.11554 3.71709,-6.0055 0,0 z m 15.38779,-34.68605 c -3.09315,-7.63746 -25.36624,-17.17338 -11.88053,-22.08292 3.80874,5.85079 25.70621,18.00742 11.88053,22.08292 z m -19.47428,-23.94252 c -1.57522,-2.47351 2.86041,2.55538 0,0 z m 29.18991,-4.3837 c 5.35382,-4.0087 -13.62115,-1.78274 -17.50093,-3.31457 -9.80587,1.26849 -12.92455,-1.25104 -12.26641,-11.24318 -1.5103,-10.451401 -4.51852,-19.977009 -2.75225,-30.995675 1.52199,-6.475142 14.31341,-10.55056 8.03957,-0.654008 7.4702,10.1395 22.50616,-3.075854 24.74204,-11.668952 6.74242,1.854209 -0.64803,20.442108 11.6909,23.381626 5.56279,3.504785 14.40748,-0.315535 3.88522,4.633428 -10.64432,-2.35239 -5.26304,12.070141 0.31203,12.196551 0.18277,8.77721 0.52779,20.25635 -11.90265,17.81867 -0.21988,-0.16696 -10.08484,0.79138 -4.24752,-0.15389 z m -25.9543,-15.01558 c 6.53756,-5.724744 1.39117,-25.651698 -5.91386,-24.455473 1.89878,5.098607 -0.5229,25.862523 5.91386,24.455473 z M 129.60495,97.92 c 6.80543,-6.901577 -12.18189,-0.0082 0,0 z m -0.47061,-8.499113 c 5.76641,-5.519728 -8.80349,-0.763442 0,0 z m -15.1229,27.790543 c -0.57749,-1.83237 1.516,1.08981 0,0 z m 49.73714,-12.17546 c 3.78677,-5.02576 4.77992,-1.82301 0,0 z m -56.16,-0.18156 c -1.24548,-1.94429 2.68451,-0.92819 0,0 z m 8.16,-40.00387 c 3.39837,-2.788588 16.21846,-12.177084 15.69557,-8.400101 -5.17432,2.786384 -10.31895,6.397265 -15.69557,8.400101 z m -9.32572,-2.139264 c -3.23721,-5.149331 1.7952,0.619199 0,0 z m 9.50503,-9.431619 c -0.41143,-2.939979 2.98154,-0.490274 0,0 z m 2.28926,-1.988228 c 0.67647,-0.977085 0.33171,1.002837 0,0 z m -13.51253,-6.198246 c -0.24028,-2.025431 1.47616,0.398994 0,0 z m -1.91901,-1.451391 c 1.20294,-3.066287 3.7032,-0.572352 0,0 z m 9.59173,0.326973 c -0.13221,-2.680562 1.91862,0.23305 0,0 z m 4.74267,-0.464579 c -12.75405,-2.948946 1.70454,-2.188647 0,0 z m -12.24758,-6.517619 c -0.90202,-9.895708 6.73736,-11.099338 0.18275,-19.226565 2.30511,-8.7743512 0.83545,1.097123 8.49911,-2.465217 9.13775,-4.446749 14.11889,5.947582 13.08257,10.537974 -10.06085,1.078495 -11.83543,11.869081 -20.97164,11.67248 l -0.79279,-0.51867 z"
       id="path51"
       inkscape:connector-curvature="0" />
    <path
       style="fill:#786b68;stroke-width:0.274286"
       d="m 134.26286,364.617 c -7.44681,-1.18844 -12.20458,-9.69572 -3.76106,-10.43743 5.43601,-4.36437 4.0086,-11.53939 -2.95484,-5.48278 -6.94924,4.35848 -25.58129,7.33303 -24.33384,-2.76562 6.44198,5.25964 7.57491,-18.36273 8.85018,-5.7885 8.74076,1.39115 12.84383,6.69766 21.59726,1.89181 4.71644,0.0299 13.19764,-8.24139 7.00471,0.80674 -7.47789,2.97412 -5.59914,10.7617 2.67655,7.42423 6.0573,8.20722 18.59766,5.16166 23.1109,2.24573 -2.98295,8.56532 -17.50377,7.90403 -25.58124,12.13339 -2.19627,0.18576 -4.41315,0.15282 -6.60862,-0.0276 z m 6.32574,-2.54639 c 8.14821,-0.0834 12.22936,-8.48887 1.20417,-9.50436 -11.14105,-1.22397 -14.49321,8.67317 -3.34989,10.7821 z m -26.31411,-12.22406 c 9.71016,-2.49993 4.82865,-9.7436 -3.56123,-6.3646 -5.89187,3.57021 -2.76745,9.02518 3.56123,6.3646 z m 50.71237,-75.91482 c 0.15636,-3.74241 -0.82081,-10.20624 1.0929,-2.29487 1.06233,1.4602 -3.26116,5.8279 -1.0929,2.29487 z m -20.164,-3.72168 c -0.82226,-3.31441 1.21707,1.3253 0,0 z m 19.48966,-17.38719 c -4.91243,-9.93832 10.10662,3.28603 2.70078,1.99767 -2.15446,2.1861 -2.82759,0.17807 -2.70078,-1.99767 z m -35.9468,-0.96018 c 7.88214,-4.5065 18.8634,-9.27632 21.84066,-18.34123 0.34921,-17.00905 1.38153,-33.99541 1.82629,-51.00022 -7.83388,-2.23734 -9.42134,16.30836 -15.93544,21.77913 -2.94101,6.13253 -11.19824,12.01581 -3.24007,2.28208 3.69294,-7.2912 10.92274,-13.9069 11.27999,-22.34246 1.45364,-12.38628 -23.76588,-6.35258 -23.52214,-8.89765 7.84394,-0.84134 15.75966,-0.3084 23.63681,-0.41557 -2.85911,-4.58755 -9.70955,-11.80518 -10.77953,-9.9051 4.58036,-4.57236 11.61921,-25.93794 16.191,-15.10546 -9.58347,12.06476 18.87357,7.65275 7.42495,20.78258 -11.67528,0.41135 5.7969,16.92533 9.99652,7.71388 4.37715,-17.59268 16.82791,6.47353 21.04901,13.68168 2.64237,11.80111 9.0267,-20.94156 7.83782,-15.70174 -2.6354,5.9574 -6.46458,21.39398 -9.97895,7.2509 -7.039,-13.7334 -19.63987,-24.37814 -33.83013,-30.13497 6.1436,-18.38063 13.89505,-36.63015 21.41554,-54.628253 -6.85125,12.147173 -8.47092,27.540213 1.68309,12.110883 -6.07057,-6.19564 10.55876,-12.888898 6.54893,-22.310193 3.84389,-0.758238 7.9357,-8.725069 10.39533,-15.984244 7.07386,-8.87392 -7.9562,-13.871675 -7.32424,-1.877951 -2.04152,5.128812 -9.4686,23.332751 -3.95328,8.907078 3.51671,-7.78779 5.13926,-23.778909 15.71586,-13.351084 9.7104,-8.412079 27.30081,-1.914507 26.47687,11.810429 -1.66692,7.113603 0.16029,12.200468 3.07871,16.915835 -9.25281,25.36156 -19.74764,50.36589 -27.81468,76.10023 3.50417,-5.44747 4.92406,-11.17952 1.60428,-1.23594 -4.76396,11.19477 -11.60953,23.49474 2.61148,30.96258 5.65023,6.46575 21.7251,18.52672 13.97211,26.1268 -13.33306,0.57391 -19.51604,-14.66209 -29.19185,-21.71849 -5.39648,-3.1367 -14.61966,-18.67847 -18.28238,-15.19579 3.34565,4.99094 3.79789,12.30017 0.35058,16.95077 -0.18617,13.58851 1.11933,27.33603 1.04676,40.75349 -6.73514,-7.86345 -10.49643,-4.12024 -9.53891,0.11072 -0.98177,-7.29354 -3.17131,-11.81191 4.97152,-7.08402 1.94577,-8.16823 -4.61071,-24.82052 -3.96972,-36.40015 1.14494,-7.5402 -6.51058,-19.25459 -4.31732,-5.15487 2.70707,7.41332 -3.146,6.91591 -4.98093,11.12986 -2.52956,10.80549 4.66949,27.24589 -7.70027,33.0893 -4.979,3.47386 -10.40572,7.80159 -16.59427,8.32716 z m 36.87387,-115.13125 c 2.77696,-5.25168 9.94124,-18.78585 -0.5752,-8.82883 -1.56402,5.19242 -5.70566,22.98252 0.5752,8.82883 z m 50.66299,-45.656545 c 10.94449,-8.14014 -3.01598,-29.142746 -11.11838,-14.467715 -4.35499,7.310263 2.71405,20.845502 11.11838,14.467715 z M 121.94721,250.21714 c -6.52851,-4.72407 6.45635,3.03576 0,0 z m 28.08708,-4.22864 c 0.93134,-1.6267 1.12545,1.48113 0,0 z m -24.13714,-6.89087 c 2.8897,-10.17904 9.15497,-19.46451 13.23969,-29.43612 -0.0106,-5.72809 4.13246,-6.07282 6.99981,-11.07261 -4.37712,14.85721 -12.01951,28.51328 -19.75647,41.86398 l -0.40109,-0.0673 z m 1.67179,-31.66906 c 3.53603,-4.85302 13.294,-16.66151 5.33325,-4.61385 -0.60303,0.6433 -5.14182,6.50141 -5.33325,4.61385 z m 2e-5,-6.60267 c -5.25525,-3.36117 -5.77646,-28.92528 -2.73081,-12.51629 0.48062,4.41721 3.93355,12.82079 8.84807,6.7429 -0.24298,2.16927 -3.0887,9.11081 -6.11726,5.77339 z m -19.84705,-8.18486 c -0.43284,-11.38736 -1.49975,-23.62381 -0.16491,-34.56992 -0.68239,5.5857 15.23962,18.9665 4.87121,11.02766 -6.92075,6.15049 -2.17531,16.39145 -4.7063,23.54226 z m 2.4375,-21.33786 c 3.742,-6.82212 -5.04933,-11.00104 -1.87923,-0.85061 -0.38103,1.32149 0.44648,6.05669 1.87923,0.85061 z m 6.41622,6.10729 c 0.27503,-2.3695 1.04405,0.54281 0,0 z m 14.2483,-10.67367 c -0.75619,-1.75982 3.24009,2.53782 0,0 z m -17.87544,-0.73252 c 1.28638,-11.26975 15.33695,-9.05291 23.31077,-11.00815 -4.89731,7.66864 -2.76887,7.57289 -8.66182,6.02278 -6.06621,-1.17867 -12.20529,2.1919 -14.64895,4.98537 z m 18.47757,-20.35347 c -3.11931,-7.53412 -24.75732,-15.03128 -12.21546,-22.21289 3.23503,5.79191 25.70061,18.91405 12.21546,22.21289 z m 12.19551,-28.12802 c -3.00452,-8.06176 -30.14464,4.11879 -31.76191,-9.91588 1.20839,-2.14064 13.03178,2.41546 8.41974,-7.722224 2.19171,-10.004698 -6.78865,-25.513602 -11.8334,-25.105094 -0.46453,-7.81675 14.03064,-13.577149 8.11897,-2.683436 10.00439,10.964635 21.83502,-7.260582 26.39505,-11.528749 -2.78565,6.917575 -7.4652,19.781277 -1.07116,26.474459 7.95446,2.510244 9.67165,-0.575495 10.03359,7.124194 4.63768,6.19724 8.85574,17.09176 1.09181,22.57506 -2.54196,0.51527 -8.64683,1.83288 -9.39269,0.78167 z m -3.24207,-12.77464 c 5.71549,-6.809641 -7.70011,-16.055212 -3.91876,-3.19432 -0.28483,2.47354 1.00424,5.15666 3.91876,3.19432 z m -9.88807,-6.895413 c 0.92264,-8.505746 -9.44744,2.196873 0,0 z m -0.23581,-8.538451 c 1.35525,-7.672399 -9.59029,2.126821 0,0 z m 33.76725,15.495414 c 4.08995,-5.08443 1.33415,0.79946 0,0 z m 9.6084,-6.478271 c 0.22344,-1.532133 0.96118,-0.372919 0,0 z m 0.55954,-1.297306 c 1.77429,-5.253953 0.8388,-0.922416 0,0 z m 1.23499,-3.228409 c 0.89729,-3.600418 0.32238,1.479647 0,0 z m 0.67404,-1.782857 c 0.22344,-1.532131 0.96118,-0.372918 0,0 z m -66.65983,-0.548571 c 0.68004,-1.445215 0.68005,1.445213 0,0 z m 67.2084,-0.822857 c 0.22344,-1.532133 0.96118,-0.372919 0,0 z m -67.1651,-0.685715 c 0.24004,-1.236317 0.24004,1.236317 0,0 z M 177.19698,89.28 c 0.22346,-1.532151 0.96118,-0.372888 0,0 z m -22.91919,-0.96983 c 6.802,-1.63338 -5.12858,1.855855 0,0 z m -45.0586,-0.675884 c 0.29898,-1.302614 0.16079,1.652165 0,0 z m 68.52636,0.274285 c 0.22346,-1.532152 0.96118,-0.372886 0,0 z M 108.9606,85.165714 c 0.26195,-1.790815 0.16782,2.13174 0,0 z m -0.32417,-2.811428 c 0.35454,-2.628724 0.0802,3.454352 0,0 z m -0.25026,-2.811429 c 0.24004,-1.236317 0.24004,1.236317 0,0 z m -3.60902,-34.834286 c 0.66211,-1.906641 0.6621,1.906643 0,0 z m 7.68,-1.211429 c 1.03267,-2.493547 0.77945,2.123071 0,0 z m -9.6,-0.166788 c 2.35682,-2.891089 1.34707,0.821978 0,0 z m 14.26286,0.159484 c -2.89383,-2.731372 2.19521,0.481652 0,0 z m -3.70286,-1.511899 c -3.75892,-0.968987 6.16905,0.62364 0,0 z m -8.62801,-5.338384 c -0.47401,-8.026045 7.04653,-10.160127 3.27939,-17.302439 -1.0413,9.289496 10.27074,4.496414 8.67414,2.389642 -10.71817,2.346606 -3.18827,-4.258772 -2.6662,-4.014104 -5.63741,2.804199 -10.80591,0.745316 -6.68401,-1.599642 6.50292,1.374912 18.52374,-4.449223 18.84555,6.789845 3.48273,4.603207 -16.58383,0.450522 -15.27595,10.834286 0.2678,3.522915 -4.00805,4.662435 -6.17292,2.902412 z m 19.55179,-15.862412 c 0.36981,-5.908738 -8.41835,5.120263 0,0 z"
       id="path49"
       inkscape:connector-curvature="0" />
    <path
       style="fill:#855931;stroke-width:0.274286"
       d="m 133.52461,364.39285 c -6.20385,-0.7438 -11.82169,-10.23888 -3.69497,-9.39856 6.53865,-5.48218 4.41271,-12.15421 -3.81558,-5.80377 -6.60546,4.19738 -23.99835,6.38805 -22.89134,-3.33255 6.55272,5.51425 7.37846,-18.24991 8.9406,-5.7153 8.71658,1.29552 12.83958,6.81708 21.55303,1.90574 4.43153,0.11482 13.34862,-7.95268 7.00881,0.71745 -7.461,2.72571 -5.58883,10.98031 2.71668,7.49959 6.47119,5.58886 16.32504,9.17327 22.97177,0.82805 -0.39292,10.48347 -17.05933,8.16231 -24.53094,13.36636 -2.73657,0.29562 -5.53558,0.44614 -8.25806,-0.067 z m 6.93268,-2.22103 c 8.56367,0.15987 12.33711,-8.67978 1.33177,-9.60617 -11.3667,-1.3611 -16.86866,9.98333 -1.33177,9.60617 z m -26.15452,-12.3371 c 6.88542,-2.30826 8.10615,-7.12468 -0.45339,-7.32597 -7.51762,0.38094 -8.90313,11.0852 0.45339,7.32597 z m 50.41167,-94.86413 c -3.80328,-10.13383 11.30861,1.15126 0.25799,0.43457 l -0.25799,-0.4346 z m -35.9046,-3.09789 c 7.46686,-5.03762 19.66773,-9.38787 21.51394,-19.16371 0.55588,-16.85916 1.28415,-33.71235 1.95788,-50.56672 -8.83372,-0.55569 -10.76252,17.7905 -17.88956,24.44991 -2.24754,4.59218 -8.31787,8.45302 -2.41849,1.51075 4.20685,-8.95297 18.367,-20.80289 9.94715,-30.27967 -4.71845,-2.88905 -29.89623,-1.5937 -14.88695,-2.74938 7.33841,-1.59851 30.00172,5.39376 15.59355,-6.03352 -14.9724,-4.88025 1.72652,-19.39047 3.96964,-22.17651 3.46198,5.06039 -1.7007,12.79865 8.75887,13.42368 11.03855,4.081 -3.9933,10.90691 -2.17976,14.85636 5.86227,10.01466 16.34304,5.95278 17.96556,-4.53818 8.70429,5.80249 14.58614,18.64446 19.24291,24.58191 4.65694,-10.22902 15.10131,12.82365 22.07871,16.35166 4.77972,2.51252 10.31476,16.87163 1.62949,15.23496 -13.25112,-2.81421 -20.61562,-18.14472 -31.3275,-26.19481 -4.16757,-4.7011 -19.09859,-19.72782 -11.2303,-4.55724 0.64961,6.99478 -3.54409,11.87512 -2.09075,19.01742 -0.62858,10.74767 1.96349,22.8395 0.49114,32.61908 -4.41888,-4.61361 -11.15817,-7.92088 -8.61339,0.9742 -1.16658,-6.34518 -3.16113,-12.25339 4.39262,-7.17294 5.32086,-2.69477 -3.50432,-17.15275 -2.25051,-24.57473 -1.44888,-6.50087 -0.42789,-26.02369 -5.9755,-23.72874 -1.61595,5.06718 4.19621,15.91302 -4.61652,14.83202 -3.43422,11.20229 4.47146,27.54053 -6.89727,34.66098 -5.17424,3.99191 -10.57452,8.05422 -17.16496,9.22322 z m -6.66883,-1.60053 c -2.63573,-2.21726 4.15707,2.27185 0,0 z m 4.1398,-10.86247 c 4.9881,-10.11177 12.26404,-20.81066 13.93072,-32.483 1.08199,1.37268 7.66766,-12.32783 3.47281,-1.6703 -4.48541,12.09602 -10.66111,23.82237 -17.40794,34.72974 z m 2.84971,-33.62684 c 3.48406,-4.95268 10.35812,-13.07448 3.59192,-2.8529 -0.46634,1.18517 -7.84473,7.95346 -3.59192,2.8529 z m -0.79407,-4.31916 c -4.1873,-4.65788 -6.48007,-14.80525 -4.91621,-19.10944 0.55553,6.13253 3.54632,18.44804 9.74038,14.37713 -0.64498,1.65776 -2.48384,5.8728 -4.82417,4.73231 z m -20.66403,-9.22671 c 0.12073,-8.33381 -1.58742,-30.6261 0.30151,-31.84861 0.56193,10.07342 0.93795,21.35353 0.2017,31.98575 l -0.28648,0.34071 -0.21674,-0.47785 z m 81.19487,-2.75313 c -4.65492,-12.75542 -14.30694,-22.73524 -25.11871,-30.55848 7.49991,3.00058 9.42184,-13.52442 9.73264,-18.53446 4.88802,-10.88675 9.83041,-21.61736 8.48019,-33.4493 -1.02069,-11.192837 4.77958,-11.642357 10.58189,-19.037868 4.93863,-5.983603 8.54494,-19.544515 13.1573,-24.941992 12.8694,-2.368512 20.09862,12.160953 17.07558,23.090939 -2.2346,4.965207 7.23176,6.214044 2.35085,11.287079 -11.98705,30.918102 -22.81258,62.347082 -35.52139,92.945562 l -0.7383,-0.80148 z m 25.71818,-97.151027 c 13.25785,-7.234347 -1.41809,-32.100594 -10.17208,-15.206968 -3.39584,6.791595 1.24903,18.192642 10.17208,15.206968 z M 114.55235,170.88 c -3.11075,-4.60668 -5.87728,4.98844 -2.77658,-3.99122 1.65595,-0.0886 7.07022,9.24271 2.77658,3.99122 z m -1.57365,-5.02406 c 0.78839,-10.32282 18.3491,-10.96379 22.59132,-9.58771 -2.51293,8.52215 -12.94182,2.00142 -18.6646,6.04222 -1.4333,-0.5541 -2.54262,5.90369 -3.92672,3.54549 z m 10.86131,-28.00105 c -6.8569,-2.78121 -12.67559,-15.54294 -3.33721,-11.50101 4.75491,4.05834 7.68999,10.22142 15.54292,15.34431 -3.09601,10.74565 -8.02072,-1.45995 -12.20571,-3.8433 z m 28.22913,-21.58462 c 8.6025,-1.70093 -6.41814,1.91497 0,0 z m -2.65195,-1.80492 c -11.1886,-2.60693 -34.60004,6.49811 -37.22335,-8.00276 10.95788,5.7568 8.3661,-10.964034 6.91643,-18.657355 -0.839,-11.77444 -19.442717,-12.43151 -4.87023,-20.895784 7.78796,-5.560411 -3.1672,12.992913 9.95621,8.539199 9.47885,0.423552 13.99147,-12.778016 18.70665,-14.423752 -5.44676,9.039685 -8.69419,29.083539 6.96131,28.186571 0.56821,6.616992 5.99872,10.101578 7.02867,14.165151 0.51127,5.68916 -0.0398,12.27047 -7.47569,11.08873 z m -9.03769,-9.7172 c 6.13513,-3.93051 -6.49121,-17.012063 -3.98584,-5.626901 0.018,2.414941 -0.40678,8.310861 3.98584,5.626901 z m -9.69949,-6.860044 c 1.73895,-9.514002 -11.83518,2.590894 0,0 z m -0.46286,-8.347957 c 1.29742,-8.357974 -9.51821,2.173658 0,0 z m 34.28114,14.928671 c 1.47259,-0.81721 -0.66834,0.84298 0,0 z M 112.45715,43.627617 c 0.52048,-1.381146 0.85197,0.994723 0,0 z m 4.8,-0.56476 c 0.33171,-1.002839 0.67648,0.977085 0,0 z m -12.08456,-6.226604 c -1.96719,-10.117047 14.10835,-17.55548 21.9933,-13.096455 -5.80522,0.291937 -16.96147,3.708998 -17.74645,13.083059 l -2.18125,0.499944 -2.0656,-0.486564 z m 4.7173,-10.71688 c -4.04198,-8.688619 -0.5035,-6.124579 0,0 z m -2.98296,-7.798221 c 4.29768,-3.921001 26.75674,0.478809 10.45708,-0.996169 -3.26407,-0.452548 -8.19898,1.136721 -10.45708,0.996169 z"
       id="path47"
       inkscape:connector-curvature="0" />
    <path
       style="fill:#6b5250;stroke-width:0.274286"
       d="m 133.50176,364.38767 c -14.1264,-2.34459 -1.89997,-15.30543 7.6339,-12.82898 8.01516,3.40035 18.27572,8.44715 25.1779,-0.46519 -0.39444,10.48387 -17.06329,8.16419 -24.53674,13.36788 -2.74347,0.29672 -5.54613,0.44337 -8.27506,-0.0737 z m 7.01802,-2.16862 c 7.21802,0.008 12.83652,-7.68475 2.77131,-9.74578 -8.98278,-2.5276 -19.05334,7.98705 -6.11767,10.85074 l 0.99312,0.0955 z m -32.44455,-9.63447 c -5.36346,-1.75514 -7.22107,-6.8132 -1.38859,-6.51528 5.27429,-7.12754 1.44949,-10.08473 4.94761,-4.24126 10.87615,1.56716 20.90937,4.1063 30.83151,-3.99933 0.52372,3.98628 -8.18269,12.07317 -9.68057,8.51424 -7.75943,3.16249 -16.08373,7.53016 -24.70996,6.24163 z m 5.47906,-2.37625 c 6.51325,-2.31225 9.76173,-7.17373 0.67963,-8.03239 -6.89221,-0.17458 -10.338,11.08569 -0.67963,8.03239 z m 52.69468,-95.41062 c -4.90443,-5.81707 2.26485,-4.81825 3.14244,-0.17495 -0.97165,-0.24113 -3.19046,0.64011 -3.14244,0.17495 z m 2.43675,-0.50551 c -1.68997,-1.90473 -0.48479,1.25739 0,0 z m -4.05065,-0.0293 c 0.2206,-1.71658 0.2206,1.71658 0,0 z m -33.3103,-3.83349 c 6.89544,-4.82271 19.1502,-9.31452 19.04725,-19.19733 0.55686,-16.3662 1.25084,-32.72776 1.90964,-49.08977 -8.8337,-0.55563 -10.76253,17.79046 -17.88956,24.44991 -2.24754,4.59218 -8.31787,8.45302 -2.41849,1.51075 4.20685,-8.95297 18.367,-20.80289 9.94715,-30.27967 -4.71845,-2.88905 -29.89623,-1.5937 -14.88695,-2.74938 7.33841,-1.59851 30.00172,5.39376 15.59355,-6.03352 -14.9724,-4.88025 1.72652,-19.39047 3.96964,-22.17651 3.46198,5.06039 -1.7007,12.79865 8.75887,13.42368 11.03855,4.081 -3.9933,10.90691 -2.17976,14.85636 5.86227,10.01466 16.34304,5.95278 17.96556,-4.53818 8.70429,5.80249 14.58614,18.64446 19.24291,24.58191 4.65694,-10.22902 15.10131,12.82365 22.07871,16.35166 4.77965,2.51256 10.3149,16.87167 1.62949,15.23496 -13.25112,-2.81421 -20.61562,-18.14472 -31.3275,-26.19481 -4.16757,-4.7011 -19.09859,-19.72782 -11.2303,-4.55725 0.6502,6.9943 -3.54409,11.87377 -2.09076,19.01533 -0.6285,10.75105 1.96368,22.84304 0.49106,32.62792 -3.26027,-2.08617 -9.94152,-8.77274 -9.4562,-5.334 -4.19472,-8.91329 13.88775,6.61717 6.36556,-6.69033 -3.90731,-13.468 -3.29021,-27.90803 -6.44359,-41.36363 -5.93004,-8.02622 -0.89483,10.26463 -3.36772,13.0602 -9.60435,3.46962 -2.65079,20.7751 -5.44302,29.92195 -2.96341,5.40751 -22.24972,16.19782 -20.26554,13.16975 z m 15.14381,-79.27336 c 0.99029,-7.26163 -12.79471,-11.40984 -4.21375,-3.5448 1.17933,0.6004 3.00727,3.97529 4.21375,3.5448 z m 14.6398,77.21875 c -0.41598,-2.44291 0.88019,1.51535 0,0 z m -0.31331,-2.34047 c 0.2206,-1.71658 0.2206,1.71658 0,0 z m -34.51426,-6.62459 c 4.98811,-10.11172 12.2639,-20.81057 13.93074,-32.48283 1.08171,1.37234 7.66776,-12.32783 3.47279,-1.67047 -4.48541,12.09602 -10.66111,23.82237 -17.40794,34.72974 z m 2.84971,-33.62684 c 3.48406,-4.95268 10.35812,-13.07448 3.59192,-2.8529 -0.46634,1.18517 -7.84473,7.95346 -3.59192,2.8529 z m -0.79407,-4.31916 c -4.1873,-4.65788 -6.48007,-14.80525 -4.91621,-19.10944 0.55553,6.13253 3.54632,18.44804 9.74038,14.37713 -0.64498,1.65776 -2.48384,5.8728 -4.82417,4.73231 z m -20.66403,-9.22671 c 0.12073,-8.33381 -1.58742,-30.6261 0.30151,-31.84861 0.56193,10.07342 0.93795,21.35353 0.2017,31.98575 l -0.28648,0.34071 -0.21674,-0.47785 z m 81.19487,-2.75313 c -4.65492,-12.75542 -14.30694,-22.73524 -25.11871,-30.55848 7.49988,3.00049 9.42186,-13.52438 9.73264,-18.53446 4.88802,-10.88675 9.83041,-21.61736 8.48019,-33.4493 -1.02069,-11.192837 4.77958,-11.642357 10.58189,-19.037868 4.93863,-5.983603 8.54494,-19.544515 13.1573,-24.941992 12.8694,-2.368512 20.09862,12.160953 17.07558,23.090939 -2.235,4.964978 7.23126,6.213581 2.35122,11.2861 -11.98719,30.918421 -22.81282,62.347731 -35.52176,92.946541 l -0.7383,-0.80148 z m 25.71818,-97.151027 c 13.25785,-7.234347 -1.41809,-32.100594 -10.17208,-15.206968 -3.39584,6.791595 1.24903,18.192642 10.17208,15.206968 z M 114.55235,170.88 c -3.11075,-4.60668 -5.87728,4.98844 -2.77658,-3.99122 1.65595,-0.0886 7.07022,9.24271 2.77658,3.99122 z m -1.57365,-5.02406 c 1.10866,-13.08533 15.28356,-2.04917 21.48988,-10.96972 3.96027,4.5947 -6.97833,7.65188 -11.62034,6.09734 -4.91443,-2.04259 -7.47538,5.14717 -9.86954,4.87238 z m 10.86131,-28.00105 c -6.8569,-2.78121 -12.67559,-15.54294 -3.33721,-11.50101 4.75491,4.05834 7.68999,10.22142 15.54292,15.34431 -3.09601,10.74565 -8.02072,-1.45995 -12.20571,-3.8433 z m 28.22913,-21.58462 c 8.6025,-1.70093 -6.41814,1.91497 0,0 z m -2.65195,-1.80492 c -11.38593,-1.68005 -28.9147,3.92696 -36.86062,-4.29148 10.60828,7.3709 15.85183,-5.13175 11.7476,-14.392578 3.84448,-12.590516 -11.8124,-18.67031 -10.44874,-28.674191 8.06474,-6.09399 -2.68141,12.650549 10.34075,8.341479 9.47884,0.42355 13.99147,-12.778014 18.70664,-14.423752 -5.44675,9.039684 -8.69419,29.083531 6.96131,28.186571 0.56835,6.616529 5.9981,10.101506 7.02873,14.164461 0.51133,5.68939 -0.0394,12.27108 -7.47567,11.08949 z m -3.85973,-4.03704 c 5.49699,-5.84941 -1.48655,-16.55931 -7.45743,-19.68346 -8.17129,-1.244699 -8.76221,18.37629 -2.74002,20.04305 3.38427,0.27305 6.85956,0.36307 10.19745,-0.35959 z M 130.68001,97.888106 c 1.73903,-9.51389 -11.83526,2.590874 0,0 z m -0.46286,-8.347957 c 1.29742,-8.357974 -9.51821,2.173658 0,0 z m 34.28114,14.928671 c 1.47259,-0.81721 -0.66834,0.84298 0,0 z M 109.32436,71.314286 c 1.52058,-4.195932 3.98447,-3.905153 0,0 z m 3.13279,-27.686669 c 0.52048,-1.381146 0.85197,0.994723 0,0 z m 4.8,-0.56476 c 0.33171,-1.002839 0.67648,0.977085 0,0 z m -12.08456,-6.226604 c -1.96719,-10.117047 14.10835,-17.55548 21.9933,-13.096455 -5.80522,0.291937 -16.96147,3.708998 -17.74645,13.083059 l -2.18125,0.499944 -2.0656,-0.486564 z m 4.7173,-10.71688 c -4.04198,-8.688619 -0.5035,-6.124579 0,0 z m -2.98296,-7.798221 c 4.29768,-3.921001 26.75674,0.478809 10.45708,-0.996169 -3.26407,-0.452548 -8.19898,1.136721 -10.45708,0.996169 z"
       id="path45"
       inkscape:connector-curvature="0" />
    <path
       style="fill:#564946;stroke-width:0.274286"
       d="m 133.98858,364.41416 c -13.64024,-1.94861 -4.48851,-13.44702 4.79997,-12.90596 9.69886,1.18492 19.20416,9.63165 27.50043,-0.0681 -0.63515,10.39181 -17.51812,7.82589 -24.85408,13.00033 -2.46618,0.2717 -4.98987,0.44115 -7.44632,-0.0263 z m 6.48585,-2.05464 c 7.68586,-0.0786 12.8707,-7.61412 2.8098,-9.88795 -9.35617,-2.41524 -18.80527,7.97411 -6.09019,10.86878 1.17348,0.44097 2.42582,-0.21773 3.28039,-0.98083 z m -31.50902,-9.64293 c -5.47863,-1.1547 -8.63681,-6.95636 -2.27877,-6.64729 5.26792,-7.12769 1.45736,-10.08231 4.94761,-4.24126 9.14713,-0.6112 13.26231,5.25001 22.00902,0.33892 5.53145,-1.74624 13.64485,-6.1081 5.5567,1.26128 -5.00574,6.70543 -5.13184,0.80966 -12.61713,5.46659 -5.61225,1.92009 -11.55046,4.62514 -17.61743,3.82176 z m 5.98557,-3.06243 c 7.35926,-2.36713 6.40684,-7.52933 -1.46928,-7.37581 -7.9023,1.16154 -8.19085,12.05301 1.46928,7.37581 z m 50.52245,-97.13148 c -3.12162,-3.00103 4.90306,1.90405 0,0 z m -30.44333,-3.55197 c 4.30797,-1.00267 17.31272,-14.08418 15.14685,-10.12036 -3.96438,3.50002 -13.06893,9.89595 -15.14685,10.12036 z m 34.20419,-2.06516 c -7.04559,-5.55118 -6.97376,-5.19107 0.52605,-2.20203 0.62914,-3.99097 1.83563,5.43688 -0.52605,2.20203 z m -0.26031,-9.31525 c -2.16087,-4.94435 -6.76868,-30.09832 -2.62694,-13.27292 1.00458,7.59368 4.09783,-7.88858 3.02751,3.63167 -0.30232,2.23319 2.26323,20.17109 -0.40057,9.64125 z m 42.89779,-11.00734 c -12.56822,-6.20806 -21.11658,-19.95113 -32.10961,-29.06608 -3.76473,-3.65542 -16.6258,-16.29478 -15.46966,-14.02464 4.33032,6.35543 9.47811,13.10273 6.71539,21.16933 -3.45798,0.88169 -8.28426,-17.5263 -13.77033,-18.10499 0.11461,6.88874 0.24132,13.77729 0.33957,20.66628 -10.75245,1.26181 -1.8136,-16.69225 -3.57446,-23.92118 -1.23937,-5.34647 -12.1168,-13.18115 -8.02043,-13.44379 0.64034,-9.95619 -14.58759,-2.91289 -7.91232,-11.59566 5.09458,-8.52003 5.79664,-10.40259 9.62472,-1.05185 12.83892,0.21276 13.15294,13.28353 4.80823,15.96814 3.9625,10.30652 17.21422,10.63791 18.70538,-2.29844 9.15004,4.6674 14.63799,21.75378 19.61224,24.12674 3.70767,-8.30039 12.16871,9.30901 17.8674,12.73005 4.70939,6.11493 9.82356,12.25398 9.20616,19.02748 -2.00913,0.097 -4.01725,-0.0929 -6.02228,-0.18139 z m 5.40583,-6.8801 c 0.24003,-1.23632 0.24004,1.2363 0,0 z m -50.51188,-10.13239 c 0.5205,-1.38112 0.85194,0.99472 0,0 z m 0,-2.89618 c 0.68002,-1.4452 0.68006,1.44518 0,0 z m -59.03875,-18.24 c -0.62719,-5.13608 0.18914,-20.28283 0.28918,-6.93199 -0.12347,0.0266 0.15313,10.77069 -0.28918,6.93199 z m 81.05058,0.23243 c -2.08585,-12.00968 -20.1452,-18.91126 -11.74545,-31.04676 -1.44329,-10.27993 11.82834,-18.0254 6.37938,-27.55069 0.60698,-8.10437 2.81217,-18.86323 0.69836,-28.29376 0.60736,-6.136499 1.5895,20.54562 6.23011,6.98766 -0.57427,-6.30908 -0.51527,-11.147619 1.74884,-12.709714 0.1955,-7.102432 4.51834,5.942284 3.03687,-3.349495 -0.65363,-4.026104 9.87622,-16.349278 9.01746,-5.309586 7.7394,14.970625 22.39065,-4.708762 13.46644,-14.048933 -6.02132,-4.215534 -13.02729,1.496354 -5.8443,-7.918755 1.03986,-6.222063 14.87181,9.072882 11.18465,15.956541 -4.00295,8.784077 7.69504,12.491154 0.0209,20.997872 -11.21493,29.08936 -21.53219,58.55917 -33.41239,87.36992 l -0.78084,-1.0843 z m -41.21183,-11.95016 c -3.72983,-1.38914 3.62559,0.40258 0,0 z m -2.67428,-0.53992 c 2.12447,-0.42686 0.40788,0.44119 0,0 z m -37.40703,-8.58807 c -0.10028,-14.14707 1.12394,3.40281 0.14536,4.91233 -0.1045,-1.63549 -0.1115,-3.27466 -0.14536,-4.91233 z m 4.47902,0.768 c -1.57909,-3.24045 2.66554,1.66358 0,0 z m 5.06817,-6.98213 c 0.0724,-3.09778 15.22589,-2.67434 18.62025,-5.812 -2.25991,8.54983 -12.30996,3.48784 -18.62025,5.812 z M 131.65656,145.44 c -3.33154,-5.73369 -21.95074,-16.19966 -13.30066,-19.26689 5.67285,4.89264 10.56372,11.52468 16.20984,16.94874 1.11329,0.68918 -2.43762,4.58397 -2.90918,2.31815 z m -10.69655,-31.64548 c -7.99024,-0.28142 -10.42703,-3.68937 -0.993,-1.89374 10.83462,-3.25916 2.62193,-20.829946 2.17876,-29.615066 -3.15511,-4.227272 -15.43323,-14.183084 -4.3043,-16.364867 -6.58703,15.982965 19.72045,8.838882 21.72713,-1.806669 6.12494,-10.510175 -3.17146,9.70232 -1.05269,13.54695 -3.33337,13.821787 15.77634,7.720249 15.09897,21.187112 6.20834,2.37997 4.18666,17.92457 -5.38754,14.90755 -9.0611,0.69483 -18.21229,0.93239 -27.26733,0.0387 z m 24.59745,-3.36621 c 5.49339,-5.8493 -1.48202,-16.560801 -7.45743,-19.68346 -8.17129,-1.244699 -8.76221,18.37629 -2.74002,20.04305 3.38412,0.26492 6.85946,0.36437 10.19745,-0.35959 z M 130.57804,98.184636 c 2.56342,-9.174441 -10.86319,1.807216 0,0 z m -0.0121,-8.637479 c 0.55413,-10.148591 -11.59114,2.997287 0,0 z m 57.5941,13.858553 c 0.67649,-0.97707 0.33169,1.00284 0,0 z M 112.75309,43.451429 c 0.39586,-0.730501 0.12243,1.182606 0,0 z m -6.28166,-7.862858 c -2.35012,-10.111268 13.54942,-15.917606 20.79755,-11.398633 -9.94994,-3.032481 -15.46002,8.265586 -20.16662,12.838628 -1.44394,0.518595 -0.60228,-0.773598 -0.63093,-1.439995 z"
       id="path43"
       inkscape:connector-curvature="0" />
    <path
       style="fill:#634732;stroke-width:0.274286"
       d="m 133.98858,364.41416 c -13.64024,-1.94861 -4.48851,-13.44702 4.79997,-12.90596 9.6758,1.19304 19.1321,9.55928 27.50077,0.0433 -1.20797,9.91991 -17.42432,7.67329 -24.85399,12.88879 -2.46629,0.27212 -4.99017,0.44152 -7.44675,-0.0261 z m 6.48585,-2.05464 c 7.68586,-0.0786 12.8707,-7.61412 2.8098,-9.88795 -9.35617,-2.41524 -18.80527,7.97411 -6.09019,10.86878 1.17348,0.44097 2.42582,-0.21773 3.28039,-0.98083 z m -31.50902,-9.64293 c -5.47863,-1.1547 -8.63681,-6.95636 -2.27877,-6.64729 5.26758,-7.12769 1.45778,-10.08219 4.94761,-4.24126 9.14713,-0.6112 13.26231,5.25001 22.00902,0.33892 5.52819,-1.74199 13.61424,-6.10619 5.5567,1.26128 -5.00574,6.70543 -5.13184,0.80966 -12.61713,5.46659 -5.5978,1.91825 -11.56141,4.62338 -17.61743,3.82176 z m 5.98557,-3.06243 c 7.35926,-2.36713 6.40684,-7.52933 -1.46928,-7.37581 -7.9023,1.16154 -8.19085,12.05301 1.46928,7.37581 z m 50.52245,-97.13148 c -3.12162,-3.00103 4.90306,1.90405 0,0 z m -30.44333,-3.55197 c 5.63675,-2.96256 23.71165,-17.52212 9.69591,-5.87252 -1.50201,1.37155 -10.72458,7.2788 -9.69591,5.87252 z m 34.20419,-2.0485 c -17.66217,-12.63462 4.24409,-0.0744 0,0 z m 0.18517,-9.32926 c -1.61436,-4.58779 0.85585,-3.29674 -10e-6,0 z m -1.41945,-4.72438 c -0.43155,-2.40589 1.01906,1.75326 0,0 z m 1.31273,-0.96 c 0.24164,-2.27477 0.17035,2.61828 0,0 z m -1.20318,-1.64571 c 2.08353,-3.26066 -0.0871,0.84122 0,0 z m -1.06535,-0.46381 c 0.79781,-2.09032 0.18993,1.25522 0,0 z m 0.19741,-1.56733 c 1.44607,-5.25243 4.3243,-0.8225 0,0 z m 41.62696,-2.46326 c -14.94179,-14.37995 -29.62263,-29.07366 -44.44036,-43.55086 1.92687,-0.16752 2.28849,1.86829 1.33617,-1.8386 5.27874,3.18899 21.48057,23.8782 13.73295,8.69471 -2.40691,-4.47516 -16.0951,-17.17542 -6.011,-15.83366 8.14816,4.61814 12.13574,20.06978 17.30872,22.45527 4.44425,-10.76829 2.57869,4.60679 -0.97936,7.32121 6.36771,7.5657 13.79631,14.19988 20.6986,21.28997 6.52966,0.91113 5.2487,0.97838 0.82285,1.9608 z m -42.10286,-16.19799 c 0.5205,-1.38112 0.85194,0.99472 0,0 z m -14.34692,-2.15579 c -1.35279,-10.12734 5.82473,-22.73848 -2.65879,-30.71774 -3.08492,-4.44684 -6.93511,-7.03039 -3.77778,-6.83905 0.18587,-10.38126 -14.59126,-2.31279 -7.33214,-12.28075 3.3664,-6.76847 8.34233,9.59264 11.3459,1.01053 9.30712,-0.75156 12.14402,11.09913 3.90228,13.27399 -3.86565,5.89557 12.6317,9.70233 14.01858,17.19846 3.56927,4.38256 6.01109,13.37965 1.04316,16.72282 1.26373,-6.191 -9.65386,-18.51968 -11.67753,-18.40692 -1.89685,5.8504 5.04044,22.29333 -4.86368,20.03866 z m 0.39684,-42.58928 c -2.33245,-5.89832 -4.01117,3.47801 0,0 z m 13.95008,41.84889 c 0.68002,-1.4452 0.68006,1.44518 0,0 z M 107.78163,187.2 c -0.58344,-6.42598 0.294,-16.03829 0.22343,-3.72657 -0.0547,-0.68016 0.0236,6.27584 -0.22343,3.72657 z m 81.28586,1.57714 c -5.12419,-9.1246 -10.41405,-15.30171 -2.60945,-24.61714 5.67588,-12.00874 2.74889,-24.9772 1.13778,-37.47896 -0.13046,-4.7216 2.34591,11.83736 3.0252,15.81039 3.51743,9.04559 3.59157,-10.67663 4.85155,-13.57169 5.67519,-7.58499 4.37338,-17.65817 12.09008,-25.80086 2.22803,-8.282749 2.78746,-10.213275 9.99152,-12.903229 6.14181,-4.233464 -1.63128,-18.889314 4.05365,-14.257918 -0.97909,-11.111307 1.75028,10.16406 0.70902,13.732283 4.78768,2.566796 3.14721,6.512224 1.14241,10.535784 -11.35951,29.66251 -21.958,59.65389 -33.98957,89.03134 l -0.40218,-0.48 z m -81.54748,-16.52571 c 0.31683,-4.61393 0.25694,4.65005 0,0 z m 0.0747,-2.74286 c 0.21005,-2.20114 0.21005,2.20114 0,0 z m 4.31387,-1.54215 c 0.45848,-0.94799 1.18233,1.48667 0,0 z m -4.38857,-6.27499 c 0.23736,-1.44881 0.65102,1.43918 0,0 z m 9.32571,-1.21185 c 2.00335,-0.74269 15.12509,-2.80737 18.80963,-4.92466 -2.19346,7.91448 -13.58536,4.89247 -18.80963,4.9247 z m 7.13143,-23.09067 c -4.03413,-4.62047 -12.93841,-11.50645 -4.992,-6.54885 1.58661,-0.0561 4.87068,5.29665 7.18209,6.31036 2.80089,3.0007 12.29258,12.9966 2.50237,4.96603 -1.56796,-1.57206 -3.13152,-3.14852 -4.69246,-4.72754 z m -2.88,-23.58908 c -7.97257,-0.23191 -10.71269,-3.70732 -1.13014,-1.89905 10.83462,-3.25916 2.62193,-20.829946 2.17876,-29.615066 -3.15511,-4.227272 -15.43323,-14.183084 -4.3043,-16.364867 -5.50207,17.991879 23.4901,6.726517 23.46664,-5.678484 0.26155,6.588325 -9.84398,27.566955 5.31471,28.528437 5.64399,1.689006 7.92599,10.952342 10.10709,14.66495 3.30412,13.90141 -14.73834,9.5951 -23.3614,10.90496 -4.09481,0.0265 -8.20016,-0.0722 -12.27136,-0.54088 z m 24.46031,-3.37152 c 5.4932,-5.8493 -1.48178,-16.56088 -7.45743,-19.68346 -8.17129,-1.244699 -8.76221,18.37629 -2.74002,20.04305 3.38412,0.26492 6.85946,0.36437 10.19745,-0.35959 z M 130.57804,98.184636 c 2.56342,-9.174441 -10.86319,1.807216 0,0 z m -0.0248,-8.62224 c 0.59563,-10.348638 -11.68183,3.151772 0,0 z M 216.2743,71.862857 c 0.70302,-1.015934 1.05443,0.983378 0,0 z M 108.18996,36.864521 c -4.73351,-10.639637 13.20558,-16.98781 18.05005,-12.65086 -9.48637,-2.113752 -15.0701,6.0862 -18.05005,12.65086 z"
       id="path41"
       inkscape:connector-curvature="0" />
    <path
       style="fill:#493227;stroke-width:0.274286"
       d="m 133.07756,364.00781 c -6.5835,-1.58696 -7.87252,-7.60995 -0.26824,-2.17226 6.08808,4.10214 17.78394,-2.17615 16.8779,-6.73579 3.39412,5.63606 16.96796,-4.44605 16.39618,-1.68262 -3.82547,7.34602 -18.03856,7.10309 -25.80326,10.92933 -2.39941,0.0484 -4.85601,0.35399 -7.20258,-0.33866 z m -4.11242,-5.15537 c -3.27153,-5.38731 14.18583,-9.05804 3.09736,-3.60426 -3.28493,-1.16888 -1.16485,4.4017 -3.09736,3.60426 z m -21.51391,-6.74748 c -10.873975,-2.87325 3.41889,-7.60223 1.92841,-8.18766 -10.487,11.55413 19.36272,5.05819 9.2085,-1.14314 5.43245,5.1994 20.14128,-3.05935 23.95431,-3.36535 -5.71623,9.90721 -12.92165,6.57465 -23.52996,11.96376 -3.71903,1.01141 -7.76669,2.00507 -11.56126,0.73239 z m 101.41735,-126.3365 c -14.93866,-14.38264 -29.62773,-29.07085 -44.44035,-43.55086 1.92686,-0.16752 2.28848,1.86829 1.33616,-1.8386 5.27874,3.18899 21.48057,23.8782 13.73295,8.69471 -2.40681,-4.47527 -16.0953,-17.1751 -6.011,-15.83366 8.14816,4.61814 12.13574,20.06978 17.30872,22.45527 4.44405,-10.76818 2.5788,4.60672 -0.97936,7.32121 6.36775,7.56567 13.79628,14.19991 20.6986,21.28997 6.52882,0.91104 5.24878,0.97847 0.82285,1.9608 z m -56.09169,-19.57417 c -0.079,-8.14967 1.97542,-16.83497 1.22658,-24.71581 -3.65408,-4.57282 -3.6078,-17.47171 -13.79654,-20.03258 -9.42385,5.3334 1.94069,-13.66078 4.47595,-2.08098 3.70569,5.04883 4.88842,-5.17856 10.85374,1.43263 8.29849,2.21127 -0.76117,11.36454 -3.30804,12.44741 5.31302,7.41163 15.74284,11.41407 18.47909,21.55919 2.43627,5.09528 -0.97613,16.32428 -2.91659,4.96464 -3.06244,-4.826 -13.12607,-21.79003 -10.72016,-6.92237 -0.83252,4.3507 3.50523,18.4161 -4.29403,13.34782 z m 0.0387,-41.36889 c -2.33245,-5.89832 -4.01117,3.47801 0,0 z m 36.25185,23.95174 c -5.12434,-9.12461 -10.41385,-15.30174 -2.60945,-24.61714 5.67588,-12.00874 2.74889,-24.9772 1.13778,-37.47896 -0.13046,-4.7216 2.34591,11.83736 3.0252,15.81039 3.51742,9.04558 3.5916,-10.67663 4.85155,-13.57169 5.67519,-7.58499 4.37338,-17.65817 12.09008,-25.80086 2.2283,-8.282667 2.78736,-10.212641 9.99152,-12.903229 6.14181,-4.233464 -1.63128,-18.889314 4.05365,-14.257918 -0.97974,-11.110938 1.7513,10.162643 0.70843,13.731696 4.78302,2.56566 3.15241,6.506835 1.14592,10.528621 -11.36055,29.66507 -21.95989,59.65908 -33.99249,89.03909 l -0.40218,-0.48 z m -60.26173,-29.54287 c 9.48006,-4.39175 3.07118,3.17477 -2.77147,0.92163 0.92382,-0.3072 1.8477,-0.61449 2.77147,-0.92163 z m -4.82861,-21.84536 c -4.03342,-4.61855 -12.9385,-11.50842 -4.99232,-6.54809 1.58672,-0.0589 4.87079,5.29668 7.18241,6.3096 2.80089,3.0007 12.29258,12.9966 2.50237,4.96603 -1.56796,-1.57206 -3.13152,-3.14852 -4.69246,-4.72754 z m 1.64571,-23.56034 c 5.54744,-2.70681 -3.42966,-18.397473 4.19516,-14.021643 -3.48293,6.983623 8.62431,18.200283 -4.19516,14.021643 z m 10.15117,0.0178 c 3.66572,-0.30869 2.35653,0.62418 0,0 z m 13.12642,-1.03448 c 8.84058,-12.79031 -5.72803,-24.261894 -17.32421,-27.594306 -8.11476,0.03854 -5.40053,5.065679 -1.88764,6.719196 -7.81085,9.54097 -0.70547,-15.119772 -9.68858,-16.299865 10.22611,1.886678 18.19659,-7.891179 22.07339,-15.029642 -5.16476,10.490653 -7.377,29.197464 7.95061,30.160943 3.17768,7.254026 13.79009,20.274244 0.28457,22.389814 -0.58574,-0.12101 -3.86091,0.63159 -1.40814,-0.34614 z M 115.60674,71.52 c 0.12978,-5.299459 0.90565,3.085218 0,0 z m 100.66756,0.342857 c 0.70302,-1.015934 1.05443,0.983378 0,0 z M 108.18996,36.864521 c -4.73351,-10.639637 13.20558,-16.98781 18.05005,-12.65086 -9.48637,-2.113752 -15.0701,6.0862 -18.05005,12.65086 z"
       id="path39"
       inkscape:connector-curvature="0" />
    <path
       style="fill:#3c2c28;stroke-width:0.274286"
       d="m 140.98286,362.93659 c 8.03894,-5.19072 15.03309,-6.73924 24.26503,-9.69181 3.1497,4.73926 -18.37979,8.55016 -24.26503,9.69181 z m -26.05714,-11.16516 c 1.31723,-4.38057 17.33653,-8.59544 25.06812,-11.23991 7.01458,-4.15608 -5.13521,7.17789 -9.29799,6.25029 -4.72575,2.11756 -11.53796,4.92868 -15.77013,4.98962 z m 94.44606,-125.96572 c -9.71241,-9.1013 -19.23282,-18.42727 -28.47515,-28.00518 4.88271,3.2122 -8.68782,-9.68986 -10.83984,-12.47367 -7.15245,-8.28892 10.6011,9.99206 14.31448,13.00538 2.93391,-0.44915 7.18734,-0.33407 0.73873,-3.39224 -3.72734,-4.01857 -5.0557,-18.76754 -0.32511,-7.21605 1.04594,8.0889 9.85984,7.26475 3.95297,12.83861 2.62858,9.39882 20.55476,18.80076 20.91772,24.68682 -2.90557,-0.73013 4.34257,2.2343 -0.2838,0.55633 z m -3.10891,-3.43058 c -3.99187,-4.39756 -20.61379,-20.27173 -8.41396,-8.0621 2.78461,2.6471 5.52699,5.74277 8.41396,8.0621 z m -53.20848,-15.45535 c 0.0615,-4.45685 1.41224,-28.0868 3.59414,-16.74655 -1.72955,4.71804 4.73456,18.37863 -3.59414,16.74655 z m 16.6541,-2.47769 c -0.83077,-9.60952 -12.87302,-14.94512 -12.98601,-24.88477 4.99199,-0.0973 15.31178,13.7053 14.08834,22.32292 0.52421,0.43356 -0.51972,4.59585 -1.10233,2.56185 z m 22.01761,-9.9422 c 1.33078,-3.39068 -0.44819,2.66471 0,0 z m -2.80761,-6.76882 c -3.63862,-4.54526 3.26318,-9.7009 2.22362,-18.4183 3.34472,-12.43844 6.348,-25.10331 12.37789,-36.42134 2.83849,-6.02138 5.16968,-28.68629 14.12748,-19.66769 1.98621,-1.08842 -5.59634,15.5038 -7.02478,20.46178 -7.18824,18.33385 -13.36082,37.0816 -21.26511,55.1252 l -0.26979,-0.66336 z M 155.85794,183.84 c -2.95334,-4.40514 3.68531,2.96801 0,0 z m 30.04487,-2.33143 c -2.65685,-4.34598 2.18635,1.94803 0,0 z m -31.27243,-11.37124 c -5.14472,-2.12311 -10.43027,-6.95528 -15.74953,-11.94001 -0.23422,-5.42752 16.89956,16.44659 8.87611,5.33717 -5.51352,-3.71973 -7.03921,-8.36707 -0.68466,-1.72411 1.62868,4.9803 15.79606,7.43419 7.55808,8.32695 z m -2.62123,0.41353 c -1.17271,-1.99697 2.07003,1.41858 0,0 z m 1.69336,-7.599 c 2.72673,-6.45598 -0.25941,3.42992 0,0 z m -16.55965,-2.49472 c 1.69076,-1.01469 1.14589,0.72698 0,0 z M 125.39188,138.24 c 0.24004,-1.23633 0.24004,1.23633 0,0 z m -2.93807,-2.49247 c 0.15197,-2.345 1.14216,1.43857 0,0 z m -3.28117,-3.31944 c 0.36037,-4.29604 0.97309,1.62595 0,0 z m 33.91263,-20.42314 c -0.77177,-5.67218 0.8487,-17.962962 3.42019,-8.20449 -0.30894,2.9354 0.92775,10.44279 -3.42019,8.20449 z m -3.33354,-19.760347 c -5.30322,-4.274921 -8.02804,-4.144288 -0.29942,-1.825942 0.44612,0.918611 2.56996,5.041645 0.29942,1.825942 z m -11.73028,-8.176032 c -1.55501,-8.082206 1.4161,2.3002 0,0 z m -10.8544,-4.566185 c -1.9105,-7.609833 11.38879,-7.243059 12.87186,-14.9081 -1.6918,7.231143 -1.58559,24.119218 -11.80213,12.517514 -0.64286,2.169048 -0.21466,9.197326 -1.06973,2.390586 z M 108.2887,35.190333 c -1.55621,-9.461813 10.82215,-14.703541 18.70559,-11.370535 -8.79117,-1.635584 -16.56253,5.747036 -18.70559,11.370535 z"
       id="path37"
       inkscape:connector-curvature="0" />
  </g>
</svg>
